<?xml version="1.0" standalone="no"?><!DOCTYPE svg PUBLIC "-//W3C//DTD SVG 1.1//EN" "http://www.w3.org/Graphics/SVG/1.1/DTD/svg11.dtd"><svg t="1594106898442" class="icon" viewBox="0 0 2585 1024" version="1.1" xmlns="http://www.w3.org/2000/svg" p-id="11473" width="323.125" height="128" xmlns:xlink="http://www.w3.org/1999/xlink"><defs><style type="text/css"></style></defs><path d="M536.565657 670.72a110.26101 110.26101 0 0 0 81.144242-34.598788v34.75394l80.885657-0.310304V316.664242h-80.885657v208.47192a64.749899 64.749899 0 0 1-129.292929 0V316.664242H407.634747v222.694142c0 71.576566 44.993939 131.361616 128.93091 131.361616M275.807677 205.679192v325.818182a58.285253 58.285253 0 0 1-58.285253 58.285252H135.343838v80.885657h91.901415a129.292929 129.292929 0 0 0 129.292929-129.292929V168.029091zM891.035152 461.886061c-56.268283-15.049697-69.818182-27.203232-69.663031-46.545455s18.669899-34.547071 40.339394-36.20202a86.67798 86.67798 0 0 1 81.351111 36.822626l67.232323-30.616566c-42.563232-70.076768-118.12202-87.505455-178.837979-74.007272-56.578586 12.515556-92.004848 53.113535-92.418586 103.434343-0.672323 80.575354 78.454949 99.607273 128.72404 112.381414 52.441212 13.291313 64.025859 27.358384 63.81899 47.114344s-18.980202 31.030303-36.20202 33.409293c-28.134141 3.775354-71.731717-5.637172-90.815354-38.425859L732.52202 599.919192c29.530505 56.164848 89.884444 81.402828 145.635556 81.402828a175.838384 175.838384 0 0 0 37.236363-3.827071c58.130101-12.61899 94.694141-52.492929 95.469899-104.003232 1.189495-77.937778-68.473535-97.900606-119.725252-111.605656M1479.886869 317.80202a110.26101 110.26101 0 0 0-81.144243 34.495354v-34.702222l-80.885656 37.28808v316.095354h80.885656V463.385859a64.749899 64.749899 0 0 1 129.29293 0v207.54101h80.782222V449.163636c0-71.576566-45.149091-131.361616-129.29293-131.361616M1267.070707 513.499798V377.535354l-80.885656 37.753535v229.727677a25.496566 25.496566 0 0 1-50.941415 0V167.098182l-80.885656 37.650101v440.268283a106.330505 106.330505 0 0 0 212.66101 0z" fill="#FFFFFF" p-id="11474"></path><path d="M1273.793939 308.648081a47.372929 47.372929 0 1 1-47.372929-47.372929 47.372929 47.372929 0 0 1 47.372929 47.372929M2480.769293 301.407677c-34.236768-142.325657-334.144646-190.16404-723.781818-124.121212v6.412929c385.137778-55.647677 592.058182-14.946263 661.979798 91.901414 83.316364 126.810505-301.769697 369.312323-759.259798 494.364445s-859.177374 106.433939-897.344647-41.373738a104.158384 104.158384 0 0 1 2.689293-57.612929h-10.343434a125.879596 125.879596 0 0 0-4.809697 71.990303c39.925657 166.115556 459.817374 201.69697 937.890909 80.006465S2520.694949 467.523232 2480.769293 301.407677z" fill="#FDD108" p-id="11475"></path><path d="M1952.219798 670.926869l-155.61697-196.421818 151.686465-157.013334h-99.245253l-106.899394 110.778182V158.668283l-80.833939 37.494949v474.763637h80.833939v-150.031515l119.05293 150.031515h91.022222z" fill="#FFFFFF" p-id="11476"></path></svg>