<?xml version="1.0" encoding="utf-8"?>
<!-- Generator: Adobe Illustrator 21.0.0, SVG Export Plug-In . SVG Version: 6.00 Build 0)  -->
<svg version="1.1" id="图层_1" xmlns="http://www.w3.org/2000/svg" xmlns:xlink="http://www.w3.org/1999/xlink" x="0px" y="0px"
	 viewBox="0 0 454 178.3" enable-background="new 0 0 454 178.3" xml:space="preserve">
<g>
	<g>
		<path fill="#FABF00" d="M449.4,33.5C432.1-5.3,354.3-10,272.2,22.8c-6.4,2.6-12.6,5.3-18.6,8v9.2c7-3.3,14.2-6.5,21.7-9.5
			c37.3-14.9,71.1-21.3,98.5-21.3c35.6,0,60.4,10.8,67.9,27.6c3.8,8.6,3.4,18.6-1.3,29.7c-13.2,31.3-56.3,64.2-109.8,84
			c-82.3,30.4-153.7,20.2-166.4-7.9c-1.2-2.6-1.9-5.4-2.3-8.3h-8.5c0.4,4,1.5,7.9,3.2,11.7c8.6,19.1,38.3,31.3,79.4,31.3
			c28.2,0,61.8-5.7,97.5-19c55.6-20.5,100.6-55.3,114.6-88.6C453.7,56.7,454.1,44.1,449.4,33.5z"/>
		<path fill="#FFFFFF" d="M287.9,46.7c-6.5,0-12,2.2-17.1,7.3v-6.9l-17.1,7.6v66.6h17.1V91.9V77.5c0-7.5,6.1-13.7,13.7-13.7
			c7.5,0,13.7,6.1,13.7,13.7v43.8h17V74.5C315.1,59.4,305.6,46.7,287.9,46.7z"/>
		<path fill="#FFFFFF" d="M86,121.2c6.5,0,12-2.2,17.1-7.3v6.9l17.1-7.6V46.7h-17.1V76v14.5c0,7.5-6.1,13.7-13.7,13.7
			c-7.5,0-13.7-6.1-13.7-13.7V46.7h-17v46.8C58.8,108.6,68.3,121.2,86,121.2z"/>
		<path fill="#FFFFFF" d="M31,22.7v69.1c0,6.8-5.5,12.3-12.3,12.3H1.3l7.6,17.1h11.8c15.1,0,27.3-12.2,27.3-27.3V15.1L31,22.7z"/>
		<path fill="#FFFFFF" d="M241.1,88.2V60.3L224,67.9l0,48c0,3-2.4,5.4-5.4,5.4c-3,0-5.4-2.4-5.4-5.4V15.2l-17.1,7.6l0,93.2
			c0,12.4,10,22.4,22.4,22.4c12.4,0,22.4-10,22.4-22.4L241.1,88.2z"/>
		<path fill="#FFFFFF" d="M160.7,77.5c-11.2-3-13.9-5.4-13.9-9.2c0-3.8,3.7-6.9,8-7.2c5.2-0.4,11.2,0.5,16,7l13.6-5.8
			c-8.5-13.9-23.5-17.4-35.6-14.7c-11.3,2.5-18.3,10.6-18.4,20.6C130.3,84.2,146,88,156,90.5c10.4,2.6,12.7,5.4,12.7,9.4
			c0,3.8-3.8,6.2-7.2,6.7c-5.6,0.7-14.3-1.1-18.1-7.6l-14.3,6.1c5.9,11.2,17.9,16.2,29,16.2c2.5,0,5-0.3,7.4-0.8
			c11.6-2.5,18.8-10.4,19-20.7C184.7,84.2,170.9,80.3,160.7,77.5z"/>
		<circle fill="#FABF00" cx="232.5" cy="43.5" r="10.5"/>
		<polygon fill="#FFFFFF" points="389.1,121.3 356.3,79.8 387.8,47.1 366.9,47.1 346.8,67.9 344.8,65.3 344.8,14.2 327.7,21.8 
			327.7,121.3 344.8,121.3 344.8,89.6 369.9,121.3 		"/>
	</g>
</g>
</svg>
