<?xml version="1.0" standalone="no"?>
<!DOCTYPE svg PUBLIC "-//W3C//DTD SVG 1.1//EN" "http://www.w3.org/Graphics/SVG/1.1/DTD/svg11.dtd" >
<!--
2013-9-30: Created.
-->
<svg>
<metadata>
Created by iconfont
</metadata>
<defs>

<font id="iconfont" horiz-adv-x="1024" >
  <font-face
    font-family="iconfont"
    font-weight="500"
    font-stretch="normal"
    units-per-em="1024"
    ascent="896"
    descent="-128"
  />
    <missing-glyph />
    
    <glyph glyph-name="B_zhuangche-01" unicode="&#59458;" d="M423.9 272.5c3.1-14.2 17.4-23.4 32.1-20.4l342.8 70.4c14.6 3 23.9 17 20.8 31.2l-75.7 349.4c-3.1 14.2-17.5 23.3-32.1 20.3L369.1 653c-7-1.5-13.2-5.6-17.1-11.4-3.9-5.9-5.3-13-3.8-19.8l75.7-349.3zM872.7 247.3c-2.5 12.1-14.5 20-26.6 17.4L406.6 172c-12.9 20.2-33.9 33.8-57.5 37.5l-85.9 406.8c-1.7 8.1-7.6 14.5-15.5 16.9-0.9 1.1-2.1 2.1-3.2 3l-57.8 44.5c-10 7-23.7 4.9-31.2-4.8-7.4-9.7-5.9-23.5 3.5-31.3l57.7-44.3c1.4-1 2.9-2 4.5-2.6l83-393.5c-36.9-15.5-57.5-54.9-49.4-94 4.5-21.6 17.5-40.6 36-52.6 18.5-12.2 41.1-16.4 62.7-11.7 21.6 4.5 40.6 17.5 52.6 36 9.1 14 13.8 30.4 13.5 47.1l435.7 91.9c12.2 2.3 20.1 14.2 17.4 26.4M374 102.6c-6.6-10.1-16.6-17-28.4-19.5-11.7-2.5-23.7-0.3-33.8 6.3-16.7 10.9-24.3 31.4-18.6 50.5 5.7 19.1 23.2 32.2 43.1 32.2 16.5-0.1 31.6-9.1 39.5-23.5 7.8-14.6 7.1-32.2-1.8-46"  horiz-adv-x="1024" />

    
    <glyph glyph-name="B_kongche-01" unicode="&#59459;" d="M749.6 238.8c-18 0.1-35.4-6.9-48.2-19.5-12.8-12.7-20.1-29.9-20.3-47.9-0.1-37.5 30.3-68 67.8-68.1 37.4-0.3 67.8 29.8 68.1 67.2 0.2 18-6.8 35.4-19.5 48.2-12.6 12.8-29.9 20-47.9 20.1zM309.3 232.9c-35.9 0-64.9-29-64.9-64.7 0-35.8 28.9-64.9 64.8-64.9 17.3-0.1 33.8 6.8 46 19 12.2 12.2 19.1 28.8 19.1 46-0.2 35.7-29.2 64.6-65 64.6zM910.7 368.6c-3.1 20.5-11.9 38.5-23.9 55.1-10.8 14.8-21.8 29.4-33 43.8-14.2 18.6-28.5 37.1-43.1 55.4-8.9 11.1-20.9 15.6-35.2 15.6-42.1-0.1-84.3 0-126.5-0.1-3.6 0-7.2-0.4-10.7-1.2-13.9-3.7-21.7-14.8-21.7-30.6V218c0-1.9 0-3.9 0.2-5.8 1.4-14.6 14.9-26.6 28.9-25.5 4.1 25.4 15.8 46.9 35.3 63.8 19.7 17.1 43 25.4 69 25.4 43.1 0.1 93.1-30.8 102.9-89.8h18.4c5.5 0.1 11.3-0.3 16.7 0.8 14.3 3.1 23 14.7 23 30 0.1 48.2 0 96.4 0 144.6 0.2 2.3 0.1 4.7-0.3 7.1z m-49.1-6.4H705V479.9h5.3c20.6 0 41.4-0.3 62.1 0.1 6.6 0.4 13-2.7 16.7-8.1 21.7-29.7 43.3-59.6 64.6-89.7 3.6-5 5.4-11.3 7.9-17.1 0.3-0.8 0-1.8 0-2.9zM516.6 664.7H181c-37.5 0-68.1-30-68.1-66.9v-350.4c0-36.9 30.6-66.9 68.1-66.9h20.2c8.6 0 16 6.4 17.2 14.9 7.2 51.2 50.9 74.1 90.9 74.1 43.7 0 80.7-31.8 86-73.9 1.1-8.7 8.5-15.2 17.2-15.2h104.1c37.5 0 68 30 68.1 66.9V597.8c0 36.9-30.5 66.9-68.1 66.9z m33.5-417.2c0-17.8-15-32.2-33.4-32.2h-89.9c-13.6 51.7-61.6 89.1-117.4 89.1-59.7 0-107.9-35.9-122.2-89.1H181c-18.4 0-33.4 14.5-33.5 32.2V597.8c0 17.8 15 32.2 33.5 32.2h335.6c18.4 0 33.4-14.5 33.4-32.2v-350.3z"  horiz-adv-x="1024" />

    
    <glyph glyph-name="RETURNED" unicode="&#59462;" d="M512 709.78125c-179.90625 0-325.78125-145.875-325.78125-325.78125S332.09375 58.21875 512 58.21875 837.78125 204.09375 837.78125 384 691.90625 709.78125 512 709.78125z m-46.125-167.8125c0 25.5 20.625 46.125 46.125 46.125 25.5 0 46.125-20.625 46.125-46.125v-166.96875c0-25.5-20.625-46.125-46.125-46.125-25.5 0-46.125 20.625-46.125 46.125V541.96875zM512 148.03125c-34.03125 0-61.59375 27.5625-61.59375 61.59375 0 34.03125 27.5625 61.59375 61.59375 61.59375 34.03125 0 61.59375-27.5625 61.59375-61.59375 0-33.9375-27.5625-61.59375-61.59375-61.59375z"  horiz-adv-x="1024" />

    
    <glyph glyph-name="SST_SHP" unicode="&#59489;" d="M643.92154075 395.89357037c33.61754075 33.61754075 54.37060741 80.22091852 54.3706074 131.55745185 0 102.43034075-82.64817778 185.44260741-184.8357926 186.41351111-0.48545185 0-1.09226667 0.12136297-1.57771852 0.12136297-102.91579259 0-186.41351111-83.49771852-186.41351111-186.53487408 0-51.4578963 20.75306667-97.81854815 54.49197038-131.67881481-100.12444445-36.77297778-169.17997037-114.08118518-169.17997038-203.40432593 0-61.65238518 138.11105185-138.23241482 301.22287408-138.23241481 166.87407408 0 301.22287408 75.00231111 301.22287408 138.35377778-0.12136297 89.32314075-69.05552592 166.63134815-169.30133333 203.40432592"  horiz-adv-x="1024" />

    
    <glyph glyph-name="SST_PUP" unicode="&#59490;" d="M875.29244445 277.04888888999994c-7.28177778 29.01333333-38.912 83.968-106.15466667 83.968h-4.32355556V651.71911111H353.84888889v-202.97955556c-20.48 6.144-41.52888889 10.35377778-62.91911111 12.62933334v4.32355556c0 7.168-2.84444445 13.99466667-7.85066667 19.00088888-5.00622222 5.00622222-11.83288889 7.85066667-19.00088889 7.85066667h-89.31555555c-7.168 0-13.99466667-2.84444445-19.00088889-7.85066667-5.00622222-5.00622222-7.85066667-11.83288889-7.85066667-19.00088888v-260.55111112c0-7.168 2.84444445-13.99466667 7.85066667-19.00088888 5.00622222-5.00622222 11.83288889-7.85066667 19.00088889-7.85066667h89.31555555c7.05422222 0 13.88088889 2.84444445 19.00088889 7.85066667 36.29511111-19.91111111 104.90311111-56.54755555 141.42577778-68.608 2.73066667-0.79644445 5.57511111-1.25155555 8.30577778-1.25155556h80.09955555c3.29955555 0 6.48533333 0.56888889 9.55733333 1.70666666l336.32711112 127.43111112c12.74311111 4.77866667 19.79733333 18.432 16.49777778 31.63022222z m-367.50222223-107.17866667h-70.656c-41.18755555 14.90488889-124.58666667 61.09866667-146.20444444 73.27288889V407.32444445c31.40266667-3.86844445 92.84266667-16.27022222 122.53866667-55.63733334 4.89244445-6.94044445 12.97066667-11.03644445 21.39022222-10.69511111h107.52c10.12622222-5.12 39.48088889-21.84533333 52.90666666-47.21777778H402.20444445c-9.55733333 0-18.432-5.12-23.21066667-13.42577777-4.77866667-8.30577778-4.77866667-18.54577778 0-26.85155556 4.77866667-8.192 13.76711111-13.42577778 23.32444444-13.42577778H629.19111111c14.79111111 0 26.73777778 12.06044445 26.85155556 26.85155556 0 14.90488889-2.95822222 28.33066667-7.96444445 40.61866666h120.94577778c21.39022222 0 34.92977778-10.58133333 43.34933333-22.07288888L507.79022222 169.87022221999996z"  horiz-adv-x="1024" />

    
    <glyph glyph-name="CLEARED" unicode="&#59491;" d="M560.58311111 387.41333333c-9.32977778-9.32977778-24.80355555-15.47377778-40.27733333-9.32977778l49.60711111 49.60711112c6.144-15.47377778 0-30.94755555-9.32977778-40.27733334M724.76444445 210.83022222c18.54577778-18.54577778 15.47377778-43.34933333-6.144-65.08088889s-46.42133333-24.80355555-65.0808889-6.144c-15.47377778 15.47377778-15.47377778 30.94755555-6.144 49.60711112 6.144-6.144 15.47377778-3.072 24.80355556 3.072 6.144 6.144 6.144 15.47377778 3.072 24.80355555 15.47377778 9.216 34.01955555 6.144 49.49333334-6.25777778m-241.55022223 111.50222223c-6.144-6.144-15.47377778-9.32977778-24.80355555-9.32977778l34.13333333 34.13333333c-0.11377778-9.32977778-3.18577778-18.54577778-9.32977778-24.80355555m-77.48266667-77.3688889c-6.144-6.144-15.47377778-9.32977778-24.80355555-9.32977777l30.94755555 30.94755555c3.18577778-6.144 3.18577778-15.47377778-6.144-21.61777778m-37.20533333 40.27733334c6.144 6.144 12.40177778 6.144 18.54577778 9.32977778l-27.87555555-27.87555556c0.11377778 6.144 3.18577778 12.288 9.32977777 18.54577778m68.15288889 80.44088889c6.144 6.144 15.47377778 9.32977778 24.80355556 9.32977777l3.072-3.072-37.20533334-37.20533333c-3.072 12.40177778 0.11377778 24.80355555 9.32977778 30.94755556m65.08088889 80.55466667c12.40177778 12.40177778 27.87555555 15.47377778 43.34933333 9.32977777l-49.60711111-52.67911111s-3.072 0-3.072 3.072c-3.072 12.40177778 0 27.87555555 9.32977778 40.27733334M799.17511111 275.91111111l-49.60711111 241.664v3.072c-6.144 21.73155555-24.80355555 34.13333333-46.42133333 37.20533334l12.40177778 12.40177777c18.54577778-6.144 40.27733333-3.072 55.7511111 12.40177778 21.73155555 21.73155555 21.73155555 52.67911111 0 74.29688889-21.73155555 21.73155555-52.67911111 21.73155555-74.29688888 0-15.47377778-15.47377778-18.54577778-40.27733333-9.32977778-62.00888889l-9.32977778-9.32977778c-3.072 21.73155555-15.47377778 40.27733333-37.20533333 46.42133333h-3.072l-244.736 49.60711112c-18.54577778 3.072-30.94755555-15.47377778-18.54577778-30.94755556l30.94755555-37.20533333c3.072-3.072 6.144-6.144 12.40177778-6.144l30.94755556-6.144c9.32977778-3.072 21.73155555 6.144 21.73155556 15.47377777v9.32977778l158.03733333-34.13333333c9.32977778-3.072 12.40177778-12.40177778 9.32977777-21.73155555l-15.47377777-40.27733334-3.072-3.072-30.94755556-30.94755556c-12.40177778 15.47377778-18.54577778 37.20533333-21.73155555 55.75111112-3.072 12.40177778-3.072 12.40177778 9.32977778 12.40177778 9.32977778 0 18.54577778 9.32977778 18.54577777 18.54577777 0 9.32977778-9.32977778 18.54577778-18.54577777 18.54577778-34.13333333 0-49.60711111-18.54577778-46.42133334-55.75111111 3.072-18.54577778 6.144-37.20533333 15.47377778-52.67911111-24.80355555 3.072-49.60711111-3.072-65.08088889-21.73155556-9.32977778-9.32977778-18.54577778-24.80355555-21.73155555-37.20533333L263.28177778 629.07733333c-6.144 6.144-18.54577778 6.144-27.87555556 0-6.144-6.144-6.144-18.54577778 0-27.87555555l21.73155556-21.73155556-27.87555556-27.87555555c-6.144-6.144-6.144-18.54577778 0-27.87555556 6.144-6.144 18.54577778-6.144 27.87555556 0l27.87555555 27.87555556 15.47377778-15.47377778-27.87555556-27.87555556c-6.144-6.144-6.144-18.54577778 0-27.87555555 6.144-6.144 18.54577778-6.144 27.87555556 0l27.87555556 27.87555555 15.47377778-15.47377778-30.94755556-27.87555555c-6.144-6.144-6.144-18.54577778 0-27.87555555 6.144-6.144 18.54577778-6.144 27.87555556 0l27.87555555 27.87555555 62.00888889-62.00888889c-6.144-3.072-15.47377778-9.32977778-18.54577778-12.40177778-15.47377778-15.47377778-24.80355555-40.27733333-18.54577778-62.00888888-18.54577778 0-37.20533333-6.144-49.60711111-18.54577778-21.73155555-21.73155555-24.80355555-52.67911111-12.40177777-74.29688889l-92.95644445-92.95644445c-6.144-6.144-6.144-18.54577778 0-27.87555555 6.144-6.144 18.54577778-6.144 27.87555555 0l89.88444445 89.88444444c24.80355555-15.47377778 58.82311111-12.40177778 80.55466667 9.32977778 15.47377778 15.47377778 21.73155555 34.13333333 18.54577778 55.75111111 21.73155555-3.072 40.27733333 3.072 55.7511111 21.73155556 6.144 6.144 9.32977778 12.40177778 12.40177778 18.54577778l99.10044445-99.10044445c-24.80355555-34.13333333-24.80355555-74.29688889 6.144-102.28622222 34.13333333-34.13333333 83.62666667-27.87555555 117.76 6.144 34.13333333 34.13333333 40.27733333 83.62666667 6.144 117.76-30.94755555 30.94755555-68.15288889 30.94755555-102.28622223 6.144l-99.10044444 102.28622222c12.40177778 3.072 27.87555555 9.32977778 37.20533334 21.73155555 18.54577778 18.54577778 24.80355555 40.27733333 21.73155555 62.0088889 15.47377778-9.32977778 34.13333333-15.47377778 52.67911111-15.47377778h6.144c24.80355555-3.072 43.34933333 9.32977778 49.60711111 27.87555555 3.072 12.40177778 3.072 27.87555555-6.144 37.20533333-6.144 6.144-18.54577778 6.144-27.87555555 0-6.144-6.144-6.144-15.47377778-3.072-21.73155555v-3.072h-15.47377778c-21.73155555 3.072-40.27733333 9.32977778-55.75111111 21.73155555l30.94755555 30.94755556c3.072 0 3.072 3.072 3.072 3.072l40.27733334 15.47377778c9.32977778 3.072 18.54577778 0 21.73155555-9.32977778l34.13333333-158.03733333h-9.32977777c-9.32977778-3.072-15.47377778-12.40177778-15.47377778-21.73155556l6.144-30.94755555c0-3.072 3.072-9.32977778 6.144-12.40177778l34.13333333-30.94755556c21.504-12.40177778 40.04977778-0.11377778 36.97777778 18.54577778"  horiz-adv-x="1024" />

    
    <glyph glyph-name="SST_LPP" unicode="&#59361;" d="M793.7 182.79999999999995L759.8 148c-13.8-14.1-32-21.9-51.5-21.9-6.4 0-12.7 0.9-18.8 2.6-25.1 6.9-52.8 27.1-59.5 52.7-3.5 13.4-3.2 27.4 0.5 40.3h-82.8c-40.1 0-73.3 32.8-73.7 73.9-0.4 41.5 32.4 75.3 72.8 75.3h83.7c-7.2 25.3-1.1 53.8 18.4 73.7 13.7 14.1 40 21.8 59.5 21.8 19.4 0 37.7-7.8 51.5-21.8l32.6-32.8c4.4-4.5 12-1.3 12 5.1v45.7l-300.7 222L203 462.7v-379.4h62.2v95h151.7v-95h387.7v95c-0.2 5.7-6.9 8.6-10.9 4.5z m-376.9 36.9H265.2V315h151.7v-95.3zM811.4 317.1l-92.2 92.3c-12.8 12.8-33.4 12.8-46.2 0s-12.8-33.4 0-46.1l36.6-36.5H550.3c-18 0-32.6-14.6-32.6-32.6s14.6-32.6 32.6-32.6h159.3L673 224.79999999999995c-8.3-8.3-11.5-20.3-8.4-31.5 3-11.3 11.8-20 23.1-23.1 11.3-3 23.3 0.2 31.5 8.4l92.2 92.3c6.1 6.1 9.6 14.4 9.6 23.1 0 8.7-3.4 17-9.6 23.1zM265.2 83.29999999999995v-0.3h151.6v0.3h-41.9z"  horiz-adv-x="1024" />

    
    <glyph glyph-name="Edit" unicode="&#59362;" d="M576.2 702.7H446.9c-18.3-0.5-32.8-15.5-32.8-33.8s14.5-33.3 32.8-33.8h129.2c18.7 0 33.8 15.1 33.8 33.8 0 18.7-15.1 33.8-33.7 33.8zM726.9 654.9h-69.3c0.1-1.6 0.3-3.2 0.3-4.8v-22.6c0-23.9-19.4-43.3-43.3-43.3h-205c-11.5 0-22.5 4.6-30.6 12.7s-12.7 19.2-12.7 30.6v22.6c0 1.6 0.1 3.2 0.3 4.8h-69.4c-35.9 0-65-29.1-65-65v-459.6c0-35.9 29.1-65 65-65H727c35.9 0 65 29.1 65 65V589.9c-0.1 35.9-29.2 65-65.1 65zM379.3 253.20000000000005l19.5 77.4 138.1 138.9 79.4-79.4-138.1-138.9-77.4-19.5c-13-3.3-24.8 8.5-21.5 21.5z m252.6-118.6H382.1c-15.9 0-28.8 12.9-28.8 28.8s12.9 28.8 28.8 28.8h249.8c15.9 0 28.8-12.9 28.8-28.8s-12.9-28.8-28.8-28.8z m27 298.2l-25.3-24.4-79.4 79.4 25.3 24.4c11.4 11.4 22.8 0 22.8 0l56.6-56.6s11.4-11.4 0-22.8z"  horiz-adv-x="1024" />

    
    <glyph glyph-name="Upload" unicode="&#59134;" d="M724.58666667 733.9733333300001H410.77333333c-13.65333333 0-26.77333333-5.44-36.37333333-15.04L228.58666667 573.12c-9.70666667-9.70666667-15.04-22.72-15.04-36.37333333v-416.85333334c0-47.46666667 38.50666667-85.86666667 85.86666666-85.86666666h459.62666667c28.48 0 51.52 23.04 51.52 51.52V648.10666667c0 47.46666667-38.50666667 85.86666667-85.97333333 85.86666666zM380.90666667 533.33333333L494.93333333 647.36c7.57333333 7.57333333 17.81333333 11.84 28.48 11.84s20.90666667-4.26666667 28.48-11.84L665.92 533.33333333c10.24-10.13333333 14.18666667-25.06666667 10.45333333-38.93333333s-14.61333333-24.74666667-28.48-28.48-28.8 0.21333333-38.93333333 10.45333333L563.73333333 521.6v-215.78666667c0-22.29333333-18.02666667-40.32-40.32-40.32s-40.32 18.02666667-40.32 40.32V521.49333333l-45.12-45.22666666c-15.78666667-15.78666667-41.28-15.78666667-57.06666666 0-15.68 15.78666667-15.68 41.28 0 57.06666666z m304.10666666-424.42666666H361.92c-19.41333333 0-35.09333333 15.68-35.09333333 35.09333333s15.68 35.09333333 35.09333333 35.09333333h323.09333333c19.41333333 0 35.09333333-15.68 35.09333334-35.09333333s-15.68-35.09333333-35.09333334-35.09333333z"  horiz-adv-x="1024" />

    
    <glyph glyph-name="Download" unicode="&#59135;" d="M724.58666667 733.9733333300001H410.77333333c-13.65333333 0-26.77333333-5.44-36.37333333-15.04L228.58666667 573.12c-9.70666667-9.70666667-15.04-22.72-15.04-36.37333333v-416.85333334c0-47.46666667 38.50666667-85.86666667 85.86666666-85.86666666h459.62666667c28.48 0 51.52 23.04 51.52 51.52V648.10666667c0 47.46666667-38.50666667 85.86666667-85.97333333 85.86666666zM380.90666667 448.32c15.78666667 15.78666667 41.28 15.78666667 57.06666666 0l45.12-45.22666667V618.88c0 22.29333333 18.02666667 40.32 40.32 40.32s40.32-18.02666667 40.32-40.32v-215.78666667l45.22666667 45.22666667c10.24 10.13333333 25.06666667 14.18666667 38.93333333 10.45333333s24.74666667-14.61333333 28.48-28.48-0.21333333-28.8-10.45333333-38.93333333L552 277.33333332999996c-7.57333333-7.57333333-17.81333333-11.84-28.48-11.84s-20.90666667 4.26666667-28.48 11.84l-114.13333333 113.92c-15.68 15.78666667-15.68 41.28 0 57.06666667z m304.10666666-339.41333333H361.92c-19.41333333 0-35.09333333 15.68-35.09333333 35.09333333s15.68 35.09333333 35.09333333 35.09333333h323.09333333c19.41333333 0 35.09333333-15.68 35.09333334-35.09333333s-15.68-35.09333333-35.09333334-35.09333333z"  horiz-adv-x="1024" />

    
    <glyph glyph-name="Top" unicode="&#59142;" d="M512 554.2L206.5 248.70000000000005l34.9-34.9L512 484.4l270.6-270.6 34.9 34.9z"  horiz-adv-x="1024" />

    
    <glyph glyph-name="Bottom" unicode="&#59144;" d="M512 213.79999999999995L206.5 519.3l34.9 34.9L512 283.6l270.6 270.6 34.9-34.9z"  horiz-adv-x="1024" />

    
    <glyph glyph-name="Left" unicode="&#59148;" d="M341.8 384l305.5-305.5 34.9 34.9L411.6 384l270.6 270.6-34.9 34.9z"  horiz-adv-x="1024" />

    
    <glyph glyph-name="Right" unicode="&#59149;" d="M682.2 384L376.7 78.5l-34.9 34.9L612.4 384 341.8 654.6l34.9 34.9z"  horiz-adv-x="1024" />

    
    <glyph glyph-name="B_liuyanye_-4" unicode="&#59258;" d="M748.2 584.7L588.8 425.2c-11.1-11.1-29.2-11.1-40.3 0-11.1 11.1-11.1 29.2 0 40.3L703 620.1H581.3c-15.8 0-28.5 12.7-28.5 28.5s12.7 28.5 28.5 28.5h187.3c1.4 0 2.7-0.1 4.1-0.3 8.2 1.2 16.5-1.3 22.8-6.7s9.8-13.3 9.8-21.6v-187.3c0-10.2-5.4-19.6-14.3-24.7-8.9-5.1-19.7-5.1-28.5 0-8.9 5.1-14.3 14.5-14.3 24.7V584.7z m-521-485.6c-5.4 5.3-8.3 12.5-8.3 20.1V306.6c0 15.8 12.7 28.5 28.5 28.5s28.5-12.7 28.5-28.5V193l154.5 154.6c11.1 11.1 29.2 11.1 40.3 0s11.1-29.2 0-40.3L311.3 147.8h123.4c15.8 0 28.5-12.7 28.5-28.5s-12.7-28.5-28.5-28.5H247.4c-7.9 0-15 3.2-20.2 8.3z m-16.5 692.1h602.7c58.4 0 105.9-47.4 105.9-105.9v-602.7c0-58.4-47.4-105.9-105.9-105.9H210.7c-58.4 0-105.9 47.4-105.9 105.9V685.3c0 58.5 47.4 105.9 105.9 105.9z m0-57c-27 0-48.8-21.9-48.8-48.8v-602.7c0-27 21.9-48.8 48.8-48.8h602.7c27 0 48.8 21.9 48.8 48.8V685.3c0 13-5.2 25.4-14.3 34.6-9.2 9.2-21.6 14.4-34.6 14.4H210.7v-0.1z"  horiz-adv-x="1024" />

    
    <glyph glyph-name="PlayS" unicode="&#59311;" d="M872.2 481.1c-8.9 75.1-39.5 144.7-88.6 201.3-49 56.6-112.9 96.1-184.8 114.2-28.8 7.3-58 10.9-87.1 10.9-43.6 0-86.9-8.1-128.4-24.1-69.2-26.8-128-73.8-170-136.1-42-62.2-64.3-135.1-64.3-210.7-0.1-118.9 56.3-231.4 150.7-300.8l0.2-0.2 187.4-165.8c6.8-6 15.5-9.3 24.6-9.3h0.1c9 0 17.7 3.3 24.5 9.3L724 135.70000000000005l0.1 0.1c45.2 33.5 82.9 77.8 109 128.3 34.5 66.9 48 142 39.1 217z m-203.3-83.5l-199.2-115c-22.6-13.1-50.9 3.3-50.9 29.4V542c0 26.1 28.3 42.4 50.9 29.4l199.2-115c22.6-13.1 22.6-45.7 0-58.8z"  horiz-adv-x="1024" />

    
    <glyph glyph-name="Play" unicode="&#59312;" d="M511.8 762.5c25.5 0 51.1-3.2 76.1-9.5 62.8-15.9 118.8-50.5 161.8-100.1 43.1-49.8 70.1-111 77.9-177.1 7.8-66.1-4-132.2-34.3-191.1-22.9-44.4-56-83.4-95.8-112.8h-0.2l-0.1-0.1-1.5-1.1-1.4-1.2L512 8.100000000000023 329.8 169.29999999999995l-0.7 0.6-0.7 0.6-0.2 0.2-0.8 0.7-0.9 0.6c-83 61.1-132.5 160-132.4 264.6 0 66.6 19.6 130.7 56.6 185.5 36.9 54.6 88.4 95.8 149 119.3 36.1 14 73.8 21.1 112.1 21.1m0 45c-43.6 0-86.9-8.1-128.4-24.1-69.2-26.8-128-73.8-170-136.1-42-62.2-64.3-135.1-64.3-210.7-0.1-118.9 56.3-231.4 150.7-300.8l0.2-0.2 187.4-165.8c6.8-6 15.5-9.3 24.6-9.3h0.1c9 0 17.7 3.3 24.5 9.3l187.5 165.9 0.1 0.1c45.2 33.5 82.9 77.8 109 128.3 34.4 66.9 47.9 142 39 217-8.9 75.1-39.5 144.7-88.6 201.3-49 56.6-112.9 96.1-184.8 114.2-28.7 7.3-57.9 10.9-87 10.9zM668.9 456.4l-199.2 115c-22.6 13.1-50.9-3.3-50.9-29.4v-230c0-26.1 28.3-42.4 50.9-29.4l199.2 115c22.6 13.1 22.6 45.7 0 58.8z"  horiz-adv-x="1024" />

    
    <glyph glyph-name="More" unicode="&#59328;" d="M522.3 270L102.8 464.6l15.4 33.3 403.7-187.4L905.1 498l16.1-32.9z"  horiz-adv-x="1024" />

    
    <glyph glyph-name="Supplier" unicode="&#59339;" d="M924.6 259.4c-8.1 31.9-42.8 92.3-116.5 92.3h-10.9v302c0 18.1-14.7 32.8-32.8 32.8H368.5c-18.1 0-32.8-14.7-32.8-32.8v-203.1l-7.6 2.3c-23.2 6.9-47.2 11.8-71.3 14.3l-5.3 0.6v10.3c0 6.6-2.7 13-7.3 17.7-4.6 4.6-11.1 7.3-17.6 7.3h-103-0.1c-6.6 0-13-2.7-17.6-7.3-4.7-4.7-7.3-11.1-7.3-17.7V178c0-6.6 2.6-13 7.3-17.7 4.6-4.6 11.1-7.3 17.6-7.3h103c6.6 0 12.9 2.6 17.6 7.3l3.1 3.2 3.9-2.2c42.7-23.5 120.5-64.8 161.8-78.6 2.6-0.8 5.2-1.1 7.8-1.1h92.2c3.1 0 6.1 0.5 9 1.6L909.2 230c11.9 4.4 18.5 17.1 15.4 29.4z m-723.1-56.5h-52.9V453.1h52.9v-250.2z m306.8-71.4h-83.5l-1 0.4c-49.4 17.9-149.7 73.7-169.3 84.8l-3 1.7V417.6l6.7-0.8c39.1-4.8 110.1-19.8 145.2-66.5l0.1-0.2c4.4-6.4 11.7-10.1 19.6-9.8h125.5l1.3-0.6c41.2-21 58.1-46.8 63.5-56.9l4.6-8.7H385.5c-8.9 0-17.1-4.8-21.6-12.5-4.4-7.7-4.5-17.3 0-25 4.5-7.7 12.8-12.5 21.7-12.5H647c13.7 0 24.9 11.2 25 25 0 15.3-2.9 30.3-8.7 44.5l-3.3 8.2h148c22.5 0 41.4-9.6 54.7-27.9l4.6-6.3-359-136.1z"  horiz-adv-x="1024" />

    
    <glyph glyph-name="Kehu" unicode="&#59340;" d="M701.4 409.8c37.2 26 61.6 69 61.6 117.7 0 68-48.3 127.1-114.8 140.6-12.7 2.1-24.8-6.2-27.4-18.9-2.6-12.6 5.4-25 17.9-28 44.3-9 76.5-48.4 76.5-93.7 0-52.7-42.9-95.7-95.7-95.7-1.4 0-2.8-0.2-4.2-0.4-2.6 0.1-5.1 0.4-7.7 0.4-13.2 0-23.9-10.7-23.9-23.9s10.7-23.9 23.9-23.9C711.5 384 787 293.5 787 168.79999999999995c0-13.2 10.7-23.9 23.9-23.9s23.9 10.7 23.9 23.9c0 110.7-53.4 201.2-133.4 241zM440.2 563.4m-155.4 0a155.4 155.4 0 1 1 310.8 0 155.4 155.4 0 1 1-310.8 0ZM440.2 49.200000000000045c138.7 0 251.1 23.9 251.1 107.6 0 117.5-80.8 216.2-189.8 243.6-19.6 4.9-49.3-40.3-61.3-40.3s-39.5 45.5-58.1 41.1C273.7 375.5 192.5 279.5 189.2 164v-11.5c3.9-80.2 114.8-103.3 251-103.3z m0 287c12 0 59.8-143.5 59.8-167.4 0-23.9-47.8-71.7-59.8-71.7s-59.8 47.8-59.8 71.7c0 23.9 47.8 167.4 59.8 167.4z"  horiz-adv-x="1024" />

    
    <glyph glyph-name="Notice" unicode="&#59343;" d="M794.5 411.2c-5.7 52.6-22 96-31.2 117.2-2.5 5.6-7.3 10-13.1 12.1-5.8 2-12.3 1.5-17.7-1.4l-0.5-0.3c-10-5.4-14.4-17.8-9.8-28.3 7.9-18.6 22-56.6 27.2-102.1 6.3-55.1-2-104.5-24.7-146.7-5.8-10.3-2.5-23.4 7.4-29.9l0.6-0.3c3.5-2.2 7.6-3.4 11.8-3.4 1.7 0 3.5 0.2 5.1 0.6 5.9 1.4 11 5.2 14 10.5l0.1 0.1c27.3 50.2 37.7 108.1 30.8 171.9zM580.6 644L395.4 515.4c-2.2-1.1-4.6-1.7-7.1-1.7h-122c-18.1 0-32.8-14.7-32.8-32.8v-199.8c0-18.1 14.7-32.8 32.8-32.8h121.4l195.5-125.5c10.2-4.2 21.8-3 30.9 3.2 9.1 6.1 14.6 16.4 14.6 27.4V614.5c0 11.5-6 22.2-15.8 28.2-9.8 6.1-22 6.6-32.3 1.3z"  horiz-adv-x="1024" />

    
    <glyph glyph-name="Consignor" unicode="&#59344;" d="M910.6 301.70000000000005c-11.3 9.8-169.5 150.9-179.8 161.8-10.8 10.8-21.1 10.8-21.1 10.8H447s-42.8-3.6-41.7-41.7c0.5-24.2 15.5-46.4 41.2-52 22.7-4.1 76.8-8.8 115.9-11.3 14.4-0.5 0-10.8 0-10.8l-50.5-36.1H335.7s-71.6 52.5-118.5 88.6c-75.7 55.1-105.1 0-105.1 0s-9.3-20.1 0.5-31.4c41.7-37.6 187.5-168.5 198.9-178.8 11.3-9.8 24.2-5.7 24.2-5.7h302.9c23.2 0 39.7-15.5 39.7-15.5s47.4-41.7 59.8-52c24.2-20.1 37.1 0 37.1 0l135.5 147.9c-0.1 1.4 11.8 15.3-0.1 26.2zM513.4 490.2H159c-19.6 0-35.5 16.5-35.5 35.5 0 20.1 15.5 35.5 35.5 35.5h354.9c20.1 0 35.5-15.5 35.5-35.5-0.4-19-16.4-35.5-36-35.5z m0 88.1H159c-19.1 0-35.5 15.5-35.5 35.5 0 19.1 15.5 35.5 35.5 35.5h354.9c20.1 0 35.5-16.5 35.5-35.5-0.4-19-16.4-35.5-36-35.5z"  horiz-adv-x="1024" />

    
    <glyph glyph-name="Consignee" unicode="&#59345;" d="M833.06666667 520.42666667l-47.89333334 170.45333333c-2.34666667 8.32-9.92 14.08-18.56 14.08H257.38666667c-8.64 0-16.21333333-5.76-18.56-14.08L190.61333333 519.46666667c-0.53333333-1.81333333-0.74666667-3.73333333-0.74666666-5.54666667v-431.57333333c0-10.66666667 8.64-19.30666667 19.30666666-19.30666667h605.54666667c10.66666667 0 19.30666667 8.64 19.30666667 19.30666667V513.81333333v0.42666667c0 2.24-0.32 4.26666667-0.96 6.18666667zM272 666.45333333h221.65333333l-11.2-132.90666666H234.66666667l37.33333333 132.90666666z m424.85333333-276.16L501.33333333 194.77333333c-5.86666667-5.86666667-13.54666667-8.74666667-21.22666666-8.74666666-7.68 0-15.36 2.88-21.12 8.74666666l-94.50666667 94.50666667c-11.62666667 11.62666667-11.62666667 30.61333333 0 42.34666667 11.73333333 11.62666667 30.61333333 11.62666667 42.34666667 0l73.28-73.28 174.29333333 174.29333333c11.73333333 11.62666667 30.61333333 11.62666667 42.34666667 0 11.84-11.73333333 11.84-30.61333333 0.10666666-42.34666667zM541.65333333 533.5466666699999l-10.24 132.90666666H752l37.33333333-132.90666666H541.65333333z"  horiz-adv-x="1024" />

    
    <glyph glyph-name="Shipper" unicode="&#59346;" d="M833.06666667 520.42666667l-47.89333334 170.45333333c-2.34666667 8.32-9.92 14.08-18.56 14.08H257.38666667c-8.64 0-16.21333333-5.76-18.56-14.08L190.72 519.46666667c-0.53333333-1.81333333-0.74666667-3.73333333-0.74666667-5.54666667v-431.57333333c0-10.66666667 8.64-19.30666667 19.30666667-19.30666667h605.54666667c10.66666667 0 19.2 8.64 19.2 19.30666667V513.81333333v0.42666667c0 2.13333333-0.32 4.26666667-0.96 6.18666667zM272 666.45333333h221.65333333l-11.2-132.90666666H234.66666667l37.33333333 132.90666666z m423.57333333-385.17333333c-4.69333333-11.62666667-16.10666667-19.52-28.69333333-19.52H314.77333333c-16.64 0-30.50666667 13.86666667-30.50666666 30.50666667s13.54666667 30.50666667 30.50666666 30.50666666h274.98666667l-35.94666667 34.02666667c-12.26666667 11.62666667-12.90666667 30.82666667-1.28 43.2 11.62666667 12.26666667 30.82666667 12.90666667 43.2 1.28L688 314.66666667000004c9.17333333-8.53333333 11.94666667-21.76 7.57333333-33.38666667zM541.65333333 533.5466666699999l-10.24 132.90666666H752l37.33333333-132.90666666H541.65333333z"  horiz-adv-x="1024" />

    
    <glyph glyph-name="SettlementParty" unicode="&#59367;" d="M835.4375 714.90820313c-18.6328125 18.6328125-43.9453125 29.09179688-70.3125 29.09179687H258.875c-26.3671875 0-51.6796875-10.45898438-70.3125-29.09179688s-29.09179688-43.9453125-29.09179688-70.31249999v-449.47265626c0-54.93164063 44.47265625-99.4921875 99.40429688-99.49218749h367.82226563c8.87695313 0 17.49023438-2.4609375 24.96093749-7.20703125l76.28906251-49.921875a88.41796875 88.41796875 0 0 1 48.07617187-14.50195313c6.15234375 0 12.39257813 0.703125 18.36914063 2.28515625 40.69335938 8.7890625 69.87304688 44.73632813 70.13671875 86.39648438V644.59570313c0 26.3671875-10.45898438 51.6796875-29.09179688 70.31249999zM644.71484375 401.578125c15.38085938 0 27.86132813-12.48046875 27.86132813-27.86132813s-12.48046875-27.86132813-27.86132813-27.86132812H538.71875v-98.70117188c0-10.81054688-5.80078125-20.91796875-15.20507813-26.27929687-9.40429688-5.44921875-21.00585938-5.44921875-30.41015624 0s-15.20507813 15.46875-15.20507813 26.27929688V346.20703125H376.38476562c-10.63476563-1.23046875-21.00585938 3.77929688-26.71874999 12.83203125s-5.71289063 20.56640625 0 29.61914063 16.08398438 14.0625 26.71875 12.83203124h101.60156249v37.96875001H376.38476562c-14.0625 1.58203125-24.69726563 13.53515625-24.69726562 27.68554687s10.63476563 26.015625 24.69726563 27.68554688h68.37890624l-47.37304687 47.02148437c-7.64648438 7.82226563-10.72265625 19.07226563-7.91015625 29.61914063 2.72460938 11.16210938 11.77734375 19.6875 23.11523437 21.70898437 10.72265625 2.8125 22.1484375-0.17578125 30.05859375-7.99804688l63.28125-65.47851562 3.60351563-4.30664063 3.60351562 4.30664063 65.12695313 65.47851563c7.82226563 7.64648438 19.07226563 10.72265625 29.61914062 7.99804687 10.81054688-2.4609375 19.24804688-10.8984375 21.70898438-21.70898438 2.72460938-10.63476563-0.26367188-21.88476563-7.99804688-29.61914062l-47.37304687-47.02148438H644.71484375c10.63476563 1.23046875 21.00585938-3.77929688 26.71875-12.83203125s5.71289063-20.56640625 0-29.61914062c-5.71289063-9.05273438-16.08398438-14.0625-26.71875-12.83203125H538.71875V401.578125H644.71484375z"  horiz-adv-x="1024" />

    
    <glyph glyph-name="A_wodefankui-01" unicode="&#59369;" d="M651.8 214.20000000000005a46.7 41.8 0 1 1 93.4 0 46.7 41.8 0 1 1-93.4 0ZM478.3 785.8c-110 0-199.5-89.5-199.5-199.5 0-74.2 40.7-139.1 101-173.4-13.1-3.8-26-8.4-38.7-13.7-41.9-17.7-79.6-43.1-112-75.5s-57.7-70-75.5-112c-18.4-43.4-27.7-89.6-27.7-137.1 0-11 9-20 20-20s20 9 20 20c0 172.2 140.1 312.2 312.2 312.2 110 0 199.5 89.5 199.5 199.5s-89.4 199.5-199.3 199.5z m0-358.9c-87.9 0-159.5 71.5-159.5 159.5s71.5 159.5 159.5 159.5c87.9 0 159.5-71.5 159.5-159.5s-71.6-159.5-159.5-159.5zM733.8 397.4h-69.6c-9.8-0.3-17.6-8.3-17.6-18.2 0-9.8 7.8-17.9 17.6-18.2h69.5c10.1 0 18.2 8.1 18.2 18.2s-8.1 18.2-18.1 18.2zM814.9 371.70000000000005h-37.3c0.1-0.9 0.2-1.7 0.2-2.6v-12.2c0-12.9-10.4-23.3-23.3-23.3H644.1c-6.2 0-12.1 2.5-16.5 6.8-4.4 4.4-6.8 10.3-6.8 16.5v12.2c0 0.9 0.1 1.7 0.2 2.6h-37.3c-19.3 0-35-15.7-35-35v-247.3c0-19.3 15.7-35 35-35H815c19.3 0 35 15.7 35 35V336.70000000000005c-0.2 19.3-15.8 35-35.1 35z"  horiz-adv-x="1024" />

    
    <glyph glyph-name="Guiji" unicode="&#59373;" d="M573.9 600.4m-75 0a75 75 0 1 1 150 0 75 75 0 1 1-150 0ZM791.4 797.5H232.6c-65.3 0-118.7-53.4-118.7-118.7v-589.7c0-65.3 53.4-118.7 118.7-118.7h558.9c65.3 0 118.7 53.4 118.7 118.7V678.9c-0.1 65.2-53.5 118.6-118.8 118.6z m-217.6-60.8c74.7 0 135.6-60.8 135.6-135.6-0.1-75.1-87.4-172-124.9-210.1-3-3-6.9-4.7-11-4.7-3.8 0.2-8.1 1.6-11 4.5-37.4 36.8-124.2 130.7-124.2 210.3 0 74.7 60.7 135.6 135.5 135.6z m241.5-555c0-57.7-49.9-104.7-111.2-104.7H483.6c-11.5-26.6-38-45.2-68.8-45.2-41.4 0-75 33.6-75 75s33.6 75 75 75c30.4 0 56.6-18.1 68.3-44.1h221c27.9 0 50.5 19.7 50.5 44V188c0 24.3-22.7 44-50.5 44h-47.5c-11.3-27.2-38-46.3-69.3-46.3-31.3 0-58.1 19.1-69.3 46.3H345.8c-61.3 0-111.2 47-111.2 104.7s49.9 104.7 111.2 104.7h90.9c16.7 0 30.3-13.6 30.3-30.3s-13.6-30.3-30.3-30.3h-90.9c-27.9 0-50.5-19.7-50.5-44s22.7-44 50.5-44h173.7c12 25.4 37.9 43 67.8 43s55.8-17.6 67.8-43h49c61.3 0 111.2-46.9 111.2-104.7v-6.4z"  horiz-adv-x="1024" />

    
    <glyph glyph-name="Products" unicode="&#59375;" d="M256.9 248.60000000000002l112.5-68.2c4.2-2.9 9.2-4.4 14.3-4.3 5.1-0.1 10.1 1.4 14.3 4.3l112.3 68.2c0.7 0.3 1.3 0.7 1.8 1.3 0.5-0.5 1.1-0.9 1.7-1.3l112.3-68.2c4.2-2.9 9.2-4.4 14.3-4.3 5.1-0.1 10.1 1.4 14.3 4.3L767 248.60000000000002c5.6 3.4 10.2 8.4 13 14.3 3.2 6.3 4.8 13 4.8 20.4V410c0 7.7-1.8 14.8-5.3 21.3-3.2 6.2-8.2 11.3-14.3 14.7l-108.9 56.5V624.4c0 7.7-1.8 14.9-5.4 21.3-3.5 6.5-8.3 11.4-14.1 14.7l-112.4 58.5c-3.8 2-7.9 3-12.6 3-4.4 0-8.6-1-12.5-3L387 660.4c-6-3.5-10.9-8.6-14.1-14.7-3.7-6.5-5.4-13.6-5.4-21.3v-121.7L258.6 446c-6-3.5-10.9-8.6-14.1-14.7-3.2-5.7-5-11.9-5.3-18.5v-132.4c0.4-6.1 1.9-12 4.7-17.5 2.8-5.9 7.3-10.9 13-14.3z m383.4 219.8l101.3-52.7L640.3 363 539 415.8l101.3 52.6zM512 682.8l110.6-57.6L512 567.7l-110.6 57.5L512 682.8zM383.6 468.4l101.3-52.7L383.6 363l-101.3 52.8 101.3 52.6zM874.5 774.9c-16.6 0-30-13.4-30-30v-616.1H177.4V744.9c0 16.6-13.4 30-30 30s-30-13.4-30-30v-771.1c0-16.6 13.4-30 30-30s30 13.4 30 30v95h667.1v-95c0-16.6 13.4-30 30-30s30 13.4 30 30V744.9c0 16.5-13.5 30-30 30z"  horiz-adv-x="1024" />

    
    <glyph glyph-name="C_bangzhu-01" unicode="&#59374;" d="M241.92 66.62a62.89 62.89 0 0 0-62.93 63V637.34a63.08 63.08 0 0 0 63 63H782a63.08 63.08 0 0 0 63-63v-396a63.08 63.08 0 0 0-63-63H360.24l-68.66-87.64a63 63 0 0 0-49.66-24.08z m0.08 579.72a9 9 0 0 1-9-9v-507.75a9 9 0 0 1 3.45-7.1 9.12 9.12 0 0 1 12.62 1.51l84.87 108.29H782a9 9 0 0 1 9 9v396a9 9 0 0 1-9 9zM476 601.34h72v-216.01h-72zM476 349.33h72v-72h-72z"  horiz-adv-x="1024" />

    
    <glyph glyph-name="Wrong" unicode="&#58921;" d="M778.12402343 73.57910156000003C749.06738281 62.188476570000034 716.05566406 68.91210937000005 693.77539063 90.77050781000003L512.23730469 272.09765625 330.77832031 90.77050781000003C299.84960937 59.868164060000026 249.72558594 59.868164060000026 218.796875 90.77050781000003 187.86816406 121.64648437000005 187.86816406 171.77050781000003 218.796875 202.64648437000005L400.30859375 384 218.796875 565.32714844C187.86816406 596.22949219 187.86816406 646.32714844 218.796875 677.22949219 249.72558594 708.13183594 299.84960937 708.13183594 330.77832031 677.22949219L512.23730469 495.82324219 693.77539063 677.22949219C724.8359375 707.18261719 774.22167969 706.76074219 804.75488281 676.22753906 835.28808594 645.69433594 835.70996094 596.36132813 805.67773438 565.32714844L624.21875001 384 805.67773438 202.64648437000005C821.234375 187.01074218999997 829.4609375 165.52148437000005 828.30078125 143.47851562999995 826.82421875 112.33886718999997 807.18066406 84.96972656000003 778.12402343 73.57910156000003"  horiz-adv-x="1024" />

    
    <glyph glyph-name="earth" unicode="&#58926;" d="M501.746542 459.102116C501.79459 459.176824 501.864135 459.242669 501.91092 459.318644 501.72631 460.199948 501.57584 460.969824 501.508824 461.518107 501.592278 460.716576 501.678261 459.909978 501.746542 459.102116L501.746542 459.102116ZM673.119276 271.71466999999996C673.125598 271.71466999999996 673.125598 271.722267 673.125598 271.72606599999995 673.102838 271.73746200000005 673.024441 271.73746200000005 673.008003 271.762787 673.033293 271.73746200000005 673.093987 271.73746200000005 673.119276 271.71466999999996L673.119276 271.71466999999996ZM677.508196 271.16512C676.447319 271.33606299999997 674.063823 271.02583400000003 673.12054 271.71466999999996 672.538892 269.70387600000004 673.416423 268.94539699999996 677.508196 271.16512L677.508196 271.16512ZM510.581283 830.040294C264.148021 830.040294 64.383234 629.992954 64.383234 383.213663 64.383234 136.439438 264.148021-63.616765999999984 510.581283-63.616765999999984 757.005692-63.616765999999984 956.778067 136.438172 956.778067 383.213663 956.778067 629.992954 757.005692 830.040294 510.581283 830.040294L510.581283 830.040294ZM795.585453 655.4938139999999C780.210955 655.02657 769.508615 654.997447 757.157427 646.461706 752.180536 643.016259 748.801914 638.453987 742.485966 636.679981 736.822475 635.08325 730.710104 636.482448 725.092134 634.5742190000001 704.819141 627.684593 708.030854 584.200556 681.317996 590.768556 668.770818 593.851857 659.927226 608.701084 653.611277 618.39797 648.048944 626.928647 637.918136 633.98415 644.760099 644.661108 641.639425 643.859577 638.311382 644.7725379999999 635.237495 644.187534 639.517671 653.596983 653.869226 652.775191 656.256515 657.58438 662.203243 669.637744 639.884363 670.89639 633.564621 672.567829 641.182957 680.698373 645.038278 669.832746 652.557986 671.677661 659.783078 673.459264 648.744393 682.989006 644.411109 684.058982 642.854566 684.445185 617.411219 677.0174059999999 632.138317 690.215453 613.957996 701.820566 595.786525 713.421881 577.60241 725.035859 574.542431 712.123983 601.799004 704.786107 610.702026 700.236498 609.319978 694.90435 601.037803 687.141016 594.696565 689.413921 588.723284 691.558937 591.148507 701.469818 582.129156 700.474551 575.689291 685.4809720000001 595.744798 689.863438 597.608603 680.675581 599.725299 670.206287 590.026936 674.643202 586.296796 674.8242740000001 585.407886 674.869859 578.455917 682.076046 578.080374 676.621072 577.630227 670.142975 589.168372 672.669129 589.98268 666.126454 576.542798 665.581969 569.679341 670.440542 558.738018 677.7201709999999 545.968296 686.2065279999999 539.415894 685.441718 523.770803 685.441718 528.449284 687.366407 534.895471 688.793462 538.896204 691.893224 541.081181 693.586191 549.657973 701.933262 550.223184 703.7971709999999 552.647142 711.837811 550.091681 711.227483 542.408857 716.4988510000001 535.579541 721.177617 527.297366 729.576604 519.021514 731.231584 489.040042 737.22471 509.774561 704.123862 487.015651 699.5590569999999 487.405102 699.538798 487.826165 699.52107 488.161246 699.52107L486.857594 699.52107C486.915759 699.524869 486.962544 699.546395 487.015651 699.5590569999999 481.750464 699.747728 471.882663 701.030432 468.490133 698.244698 466.095257 696.287086 465.894209 688.421187 463.217359 685.573407 458.452896 680.486911 451.350457 679.471384 445.665471 675.804346 440.117047 672.220879 427.882188 663.029223 424.62369 656.7929790000001 412.61264 633.814474 451.685537 626.681729 466.499882 619.964313 473.192638 616.929129 492.752479 612.773321 496.395371 607.7020190000001 501.281222 600.892166 492.18474 594.5065050000001 502.386355 589.718841 505.644854 588.194285 512.364163 587.882789 515.171251 591.042064 519.732137 596.189341 513.317561 597.350486 512.225073 603.2954950000001 510.109641 614.739795 513.595742 610.192718 519.343949 614.444761 531.057853 623.10586 528.420202 623.636416 524.205775 637.437195 522.2484 643.8608429999999 514.865253 661.793371 521.35949 666.53545 529.827539 672.722311 547.889002 663.1824389999999 554.381974 662.384706 561.938352 661.457817 566.22991 650.972062 570.348236 646.683297 573.08325 643.835519 577.975424 637.793008 582.753796 638.4463900000001 590.339256 639.487241 587.165476 646.127418 591.564513 649.190458 603.366927 657.388113 606.476221 646.252775 611.179989 635.116172 615.604315 624.655741 619.792187 620.773441 627.667207 614.063622 631.325273 610.939801 647.354758 599.7930670000001 645.842471 592.922435 644.816998 588.294318 626.506438 581.274269 621.609207 579.72059 603.710858 574.044024 570.134543 589.01481 566.528321 560.590196 573.472703 563.179662 593.226005 579.3394499999999 599.149973 571.679948 601.850847 568.205379 597.006723 563.144207 598.147261 559.693696 601.527147 549.347228 609.495737 552.952221 617.85125 554.6236610000001 617.282245 554.267846 616.698068 553.957617 616.081014 553.6815770000001 627.49777 559.5569419999999 626.311713 558.332485 631.550345 567.8622270000001 633.261152 570.975918 635.805234 578.5113269999999 638.215283 580.739915 646.513896 588.384221 647.792259 583.12045 652.93353 577.222293 654.280174 575.6673470000001 666.990466 557.339751 662.466249 558.253978 647.680987 561.223317 633.48496 560.8257169999999 621.223549 552.729362 614.159043 548.05566 607.476404 541.751038 599.038701 538.647477 597.016839 537.9079919999999 582.040643 536.487268 583.81088 539.043811 586.395424 542.772896 595.289594 545.240803 598.799719 549.266188 589.072274 553.277644 580.959536 544.4202769999999 573.31591 539.241345 565.204437 535.398299 563.319136 528.237697 556.412687 521.9584 553.398229 519.220783 547.696805 518.7548059999999 544.736718 515.1523460000001 541.865142 511.65625 541.508566 506.15949 538.787461 502.840668 536.879399 500.517113 531.985962 501.92011 529.993182 498.41895 527.397258 493.842749 532.369092 489.595771 531.279132 486.299741 529.282559 480.310414 517.90753 475.228982 513.532518 470.916159 514.116696 471.478371 514.697081 472.058311 515.268614 472.64458 510.884752 468.037991 505.337591 464.650791 501.91345 459.31991 503.485166 451.79463 508.440562 433.846907 507.058513 429.716424 502.498892 416.130906 493.642655 437.106216 490.05034 442.524468 477.709268 461.145832 453.043561 448.684738 436.193446 447.139922 414.644617 445.16585 393.537084 417.159095 406.830292 394.426241 413.210727 383.52389300000004 423.944678 379.30224 436.256668 381.82586100000003 447.215692 384.072176 450.505802 399.424101 460.823747 399.703941 479.786766 400.210438 461.242282 381.096505 459.601021 374.08152199999995 458.083675 367.583165 461.965549 366.98296600000003 468.644396 365.372305 473.577032 364.19090100000005 480.561877 367.48566400000004 484.838261 364.665742 487.531548 362.884138 487.40131 353.13533600000005 491.107424 356.20977300000004 483.814053 350.15586699999994 485.517272 335.800474 492.995254 330.61267899999996 501.28628 324.852541 511.047866 330.18595500000004 519.728344 327.975095 536.116934 323.78763100000003 528.293756 329.226143 542.685773 337.92649600000004 552.39931 343.78919900000005 553.992522 336.82233199999996 560.630907 336.79447500000003 565.148801 336.776748 568.019112 343.30043 575.574226 341.402332 581.732117 339.84738600000003 584.164926 335.08758 591.517728 333.99228000000005 594.532186 333.547829 597.644008 335.1281 600.519376 334.81027200000005 614.117317 333.29711299999997 624.528832 324.59676 635.245081 316.72832800000003 644.076029 310.25402999999994 649.925394 311.56585700000005 660.24081 308.612979 667.776957 306.461633 681.682159 295.54029 680.970272 285.95103500000005 680.842562 284.235276 674.254756 275.612164 673.129391 271.72859800000003 675.057684 270.391446 688.469749 273.39244099999996 692.394615 273.674813 691.104871 272.171783 681.971719 265.74560099999997 681.971719 269.15812500000004 681.971719 267.408179 688.434345 263.81711399999995 690.008589 262.701555 694.771789 278.19023400000003 702.596231 268.22363800000005 712.013885 264.386924 720.020408 261.12128399999995 729.875564 260.946542 738.415688 258.90915700000005 745.664803 257.180736 761.651297 252.27911099999994 767.022698 246.346764 773.489116 239.20642199999998 769.019271 227.60510699999998 764.234577 220.50022 757.975528 211.18827199999998 748.538908 207.60607200000004 744.634273 196.649275 741.549005 187.96538299999997 743.865485 179.19158700000003 742.102836 169.564345 739.71934 156.53217600000005 737.80875 161.100779 729.427948 153.148776 722.376087 146.45161800000005 729.310353 147.61529499999995 719.709353 143.34679100000005 710.065362 139.05549499999995 701.573288 140.331867 694.896969 129.735949 695.163769 130.40199299999995 695.381256 131.07056899999998 695.56713 131.76700300000005 692.749926 127.81885799999998 691.341324 119.73389899999995 690.006061 117.08112100000005 686.640084 110.31178799999998 681.997008 106.04201699999999 676.672391 100.40470500000004 674.632828 98.24576200000001 655.87465 72.58282299999996 654.791013 74.645532 653.397585 77.32616700000005 638.607264 71.95223399999998 637.902963 75.77628600000003 638.490935 72.56256199999996 637.762609 73.64013499999999 641.435848 71.78762200000006 638.034467 50.697085000000015 629.126387 47.55047200000001 608.444975 47.337743000000046 610.224063 37.20147099999997 600.950555 39.22366099999999 596.641296 33.773751999999945 594.121238 30.591683999999987 592.918743 21.643147 591.172531 17.52152799999999 590.081308 14.93332799999996 582.007768 4.561535000000049 582.007768 2.5064230000000407 581.998917 0.6133899999999812 584.723816-2.1596799999999803 587.27422-4.82005700000002 572.693799-7.707089999999994 557.827612-9.721681999999987 542.728764-10.94867099999999 545.554819-7.3829319999999825 546.235096-4.248980999999958 537.232183-3.8197249999999485 539.640968 2.735612999999944 545.298136 6.474828000000002 547.69554 12.82503399999996 548.832285 15.820965000000001 547.891531 17.004902000000016 548.85378 19.97424000000001 552.147684 30.22067500000003 550.71885 26.354836999999975 548.861367 34.314437999999996 544.51038 52.96999000000005 550.409059 58.07168200000001 555.487107 75.15202799999997 560.700452 92.70468400000004 560.214901 115.45779800000003 563.555589 134.36533199999997 565.13995 143.41263600000002 567.735874 162.23913100000004 564.597499 170.791334 561.062085 180.42364099999998 545.510564 188.00970099999995 538.387893 194.486532 528.303871 203.687051 522.943851 213.62832200000003 515.455753 225.000447 511.654804 230.77577900000006 507.322784 236.44348100000002 504.35764 242.72277799999995 498.015137 256.15001500000005 504.361432 248.15875800000003 505.428632 256.082904 506.451576 263.74114 504.518225 270.58518000000004 507.554179 278.622023 510.912569 287.507248 519.295901 293.044526 522.049881 302.004459 524.528212 309.98052199999995 522.64291 320.00663 514.460628 322.667006 509.901006 324.157374 504.869743 320.72332400000005 500.287361 321.47673799999995 493.899339 322.51379099999997 486.666661 327.29005800000004 481.653101 331.10904600000003 474.654347 336.448791 472.030605 345.126352 464.577912 350.19005500000003 458.337831 354.409177 453.899596 351.88428799999997 447.224543 353.85836099999995 440.263723 355.91220599999997 435.965844 364.512526 430.350402 367.205824 421.92408 371.242605 417.176055 365.44701299999997 408.28062 366.618288 400.715391 367.60975599999995 389.177247 376.00621 382.108948 379.17814899999996 367.735898 385.620791 358.983347 392.732009 353.235138 407.339384 348.313882 419.866323 341.138105 425.710032 332.689023 436.142605 324.127404 446.714464 321.446761 455.722514 308.250917 458.539904 306.701961 458.876725 311.480333 447.442554 311.97347 446.525795 316.68862 437.782389 323.769563 429.796197 329.464664 421.655523 337.844203 409.664205 334.27212 407.414092 325.748434 419.009076 316.000757 432.274234 304.690215 445.463417 296.23481 459.511112 293.038269 464.820468 293.65153 468.253251 288.380021 473.294163 283.285535 478.164133 276.619332 480.537072 271.489442 485.168986 253.032205 501.790954 249.676343 523.980589 251.78166 547.675787 252.464465 555.399867 255.251322 561.577865 254.022273 569.001846 253.008181 575.167181 249.37414 580.263807 244.833484 584.80582 243.37051 587.139505 239.697271 592.88698 239.484843 593.252924 235.294442 600.2235900000001 232.034679 607.077761 225.378593 612.794846 221.559941 616.08961 211.678233 623.789631 202.374379 630.239872 244.174704 682.447054 298.871197 723.820266 361.617205 749.5085300000001 362.115399 746.349254 363.470894 743.19631 365.501608 740.177588 370.66058 732.5155540000001 375.576778 733.122084 385.64689 731.001127 384.568312 719.295981 370.905884 719.203546 361.657667 720.472321 350.618983 721.990546 339.004971 725.662648 329.441904 715.974626 334.724794 712.793825 349.220496 700.4087059999999 347.294732 713.349706 357.869363 713.880261 368.09121 714.195556 378.436974 712.929313 382.581854 712.420284 396.470618 707.752913 400.234899 709.8814669999999 401.814202 710.775434 403.49719 718.579288 405.170063 720.980083 402.220091 720.963623 399.058956 722.45399 396.121629 722.171618 402.972442 730.955543 409.797965 724.06465 418.516377 720.025336 408.917905 714.184159 414.610478 700.184581 423.995256 711.5592389999999 431.703369 720.912973 422.10869 727.693702 412.320551 733.14361 422.19088 745.505937 428.276698 746.621497 437.564114 732.66877 439.094103 741.274154 446.029634 737.828708 453.27875 737.193054L453.27875 739.345667C450.087268 739.268426 446.680827 741.10701 443.522222 740.775254 450.906633 752.5728369999999 446.194014 755.268667 456.75094 759.119311 465.157032 762.184885 489.139934 759.330774 492.094963 767.2460570000001 475.310598 763.977884 455.032548 763.196612 439.889445 755.553572 433.361068 752.258809 425.583411 741.85536 419.06262 748.6170950000001 412.378716 755.553572 423.842257 766.707903 429.70806 770.107765L428.304516 770.107765C454.860581 775.76407 482.364988 778.80052 510.582547 778.80052 528.815976 778.80052 546.734555 777.449439 564.323112 775.043579 558.237294 771.842517 562.737487 769.681041 558.304311 766.410336 549.83879 760.174091 534.810753 754.9711 524.735582 751.0305539999999 537.541973 751.064743 568.542596 739.005048 574.508291 756.994556 570.373526 757.630211 566.25014 758.268397 562.119169 758.90405 569.836132 764.028535 578.444536 768.175479 587.48159 771.215727 669.035089 755.0369450000001 741.574294 713.613084 796.756337 655.486217 796.358035 655.4938139999999 795.966053 655.503944 795.585453 655.4938139999999L795.585453 655.4938139999999ZM867.799693 498.613951C868.534341 500.184092 870.250206 500.701985 870.9583 501.997351 872.449091 504.721039 872.11654 506.568487 873.951263 508.905971 875.916225 511.433391 878.567785 512.052584 880.760349 514.026656 881.645466 514.821857 882.137338 515.557544 882.543229 516.307159 889.124713 497.913719 894.370933 478.896021 898.185791 459.370559 898.070725 459.230007 898.006239 459.018545 897.862091 458.900784 896.90237 458.142304 890.649644 457.211616 889.366223 457.167298 884.836949 456.992555 881.4735 460.001148 878.221324 462.833733 874.913512 465.710636 871.018994 469.560013 868.668373 473.2853 866.158432 477.2651 867.707388 481.352531 867.888205 485.898342 868.03741 489.719862 866.179927 495.169771 867.799693 498.613951L867.799693 498.613951ZM872.905559 293.74096C865.241702 300.408993 856.199591 309.3474 850.749794 317.98444099999995 844.929511 327.19382399999995 848.516767 336.670384 848.942888 347.21691799999996 849.295672 356.086948 844.96871 368.708854 848.73299 376.69504700000005 850.461498 380.340559 854.421769 381.547288 856.052915 384.534354 859.518783 390.860503 858.749995 395.136604 863.002354 400.575116 867.564505 406.416293 873.699637 407.854744 878.781478 412.434745 884.106094 417.236336 883.958152 421.026201 887.329188 427.177607 889.794873 431.6791 895.591131 439.181587 901.078862 443.105673 904.056651 423.571348 905.608137 403.565981 905.608137 383.214929 905.608137 348.00325399999997 900.929657 313.87548400000003 892.264352 281.35837300000003 884.877411 283.26660100000004 878.801708 288.598749 872.905559 293.74096L872.905559 293.74096Z"  horiz-adv-x="1024" />

    
    <glyph glyph-name="china" unicode="&#58927;" d="M987.4336 635.94453333c-6.25066667 6.25066667-39.58613333-29.16906667-54.17066667-27.08586666-14.58453333 2.0832 4.16746667 30.2112-33.33653333 34.3776-13.54986667 1.50506667-20.29866667 2.05866667-23.39413333 2.15146666-3.57226667 8.29973333-26.39786667 60.51946667-35.98613334 62.43733334-10.41706667 2.0832-16.66773333 0-16.66773333 0s-23.96053333 26.04373333-61.46346667-15.62666667c0 0 26.04373333-3.12533333 11.4592-19.79306667s-14.58453333-43.7536-35.41973333-46.87893333c-20.8352-3.12533333-17.70986667 7.29173333-17.70986667 7.29173333s-14.58453333-41.6704-9.376-47.92106666c5.20853333-6.25066667 21.87733333 6.25066667 22.9184 0 25.0016 16.66773333 50.00426667-15.62666667 36.46186667-21.87733334-13.5424-6.25066667-26.47146667 0-26.47146667 0s-20.40746667-11.4592-21.4496-14.58453333c-1.04213333-3.12533333-9.376-27.08586667-23.96053333-13.5424l-16.66773333-18.752s-18.752 3.12533333-22.9184 8.33386667c-4.16746667 5.20853333-21.87733333-18.752-5.20853334-28.12693334 5.75786667-6.8128-7.0176-11.4592-7.0176-11.4592s-9.65013333-14.58453333-24.23466666-18.752-35.41973333 6.25066667-44.79573334 0-29.16906667-14.58453333-28.12693333-17.70986666c1.04213333-3.12533333-37.50293333 17.70986667-48.96213333 17.70986666-11.4592 0 1.04213333 14.58453333-56.25493334 14.58453334-9.44 0.0768-30.2112 7.29173333-30.2112 7.29173333l-14.58453333 28.12693333-21.87733333 20.8352-45.8368 13.5424 5.20853333 19.63306667 3.12533333 18.91093333s-8.33386667 12.50133333-8.33386666 17.70986667c0 5.20853333-12.50133333 11.4592-14.58453334 14.58453333-2.0832 3.12533333-12.50133333 13.5424-10.41706666 20.8352 2.0832 7.2928-5.20853333 11.4592-5.20853334 11.4592s-15.62666667-15.62666667-18.752-15.62666666-19.79306667-12.50133333-18.752-21.87626667-31.25226667-5.20853333-35.41973333 5.20853333c-4.16746667 10.41706667-23.96053333-28.12693333-21.87733333-31.25226666 2.0832-3.12533333-29.16906667-6.25066667-33.33653334-4.16746667-4.16746667 2.0832 2.0832-19.79306667 0-29.16906667s-15.62666667-18.752-15.62666666-18.752v-11.4592s-50.00426667-6.25066667-52.08746667-10.41706666c-2.0832-4.16746667-8.33386667 3.12533333-19.79306667-7.2928-11.4592-10.41706667-11.4592 12.50133333-11.4592 12.50133333s-31.25226667 4.16746667-35.41973333-5.20853333c-4.16746667-9.376-14.58453333-25.0016 5.20853333-35.41973334 3.2256-16.97813333-4.16746667-21.87733333-4.16746666-21.87733333s-6.71253333 7.2928-7.5232 0c-0.81066667-7.2928 13.77386667-18.752 14.816-22.9184 1.04213333-4.16746667 2.0832-26.04373333 27.08586666-36.46186667 0-7.2928-3.12533333-18.752-3.12533333-18.752s18.752-6.25066667 16.66773333-11.4592c-2.0832-5.20853333-9.376-2.0832-11.4592 0-2.0832 2.0832 9.376-41.6704-1.04213333-42.71146666-10.41706667-1.04213333-6.25066667 10.41706667-6.25066667 10.41706666s-5.20853333-11.4592-5.20853333-18.752c0-7.29173333-4.16746667-18.752 11.4592-22.9184 6.3168-4.11093333 5.20853333-29.16906667 23.96053333-26.04373333 10.13013333 1.68853333 10.22506667 3.67893333 9.32266667 4.66133333 0.288-0.13866667 0.64746667-0.30186667 1.0944-0.49386666 7.2928-3.12533333 13.5424-33.33653333 22.9184-33.33653334s12.50133333-26.04373333 29.16906667-32.2944c16.66773333-6.25066667 22.9184-18.752 37.50293333-19.79306666 14.58453333-1.04213333 11.4592 0 19.79306667-12.50133334 8.33386667-12.50133333 11.4592 19.79306667 23.96053333 12.50133334 12.50133333-7.2928 26.04373333-6.85866667 32.2944-15.40906667 6.25066667-8.5504 3.12533333-18.96853333 3.12533333-18.96853333s12.50133333-9.376 32.2944-5.20853334c19.79306667 4.16746667 37.50293333 19.79306667 43.7536 19.79306667s26.04373333-8.33386667 29.16906667-9.376c3.12533333-1.04213333 5.20853333 15.62666667 8.33386667 13.5424 3.12533333-2.0832 31.25866667-40.62826667 13.02506666-60.42133333-18.2336-19.79306667-51.57013333-43.7536-4.6912-40.62826667 6.25066667-10.41706667 4.6912-20.8352 4.6912-20.8352h8.85226667l-8.85226667-20.8352h11.9776l12.50133334-18.752 9.376 5.20853333 6.25066666-12.50133333h11.4592l-3.12533333 29.16906667 10.41706667-4.1664s4.16746667 10.41706667 9.376 10.41706666 4.16746667-9.376 9.376-9.376c5.20853333 0 14.58453333 6.25066667 14.58453333 6.25066667s11.4592-4.16746667 15.62666667-4.16746667 9.376 11.4592 16.66773333 11.4592 20.8352-3.12533333 23.96053333-5.20853333c3.12533333-2.0832 17.70986667-40.62826667 42.71146667-34.3776 25.0016 6.25066667 14.58453333 9.376 22.9184-7.29173333s10.41706667-28.12693333-2.0832-27.08586667c-12.50133333 1.04213333-30.2112-30.2112-10.41706667-33.33653333 19.79306667-3.12533333 31.25226667 20.8352 39.58613334 27.08586666 8.33386667 6.25066667-10.41706667 11.4592-10.41706667 19.79306667 0 8.33386667-5.20853333 17.70986667-5.20853333 17.70986667s53.1296 9.376 56.25493333 16.66773333 16.66773333 16.66773333 16.66773333 16.66773333 37.50293333-4.16746667 47.92106667 3.12533334c10.41706667 7.2928 34.3776 22.9184 45.8368 38.54506666 11.4592 15.62666667 16.66773333 47.92106667 16.66773333 47.92106667v5.20853333s6.25066667 3.12533333 18.752 16.66773334c12.50133333 13.5424 16.66773333 32.2944 16.66773334 32.2944V200.49066667s-8.18773333-0.68906667-22.9184 6.25066666c10.41706667 10.41706667 30.2112 4.16746667 16.66773333 17.70986667-13.5424 13.5424 3.12533333 11.4592 3.12533333 11.4592s-30.2112 60.42133333-45.8368 62.5056c-15.62666667 2.0832 38.54506667 57.296 38.54506667 64.5888s-78.1312 10.41706667-78.1312 10.41706667l-11.4592 19.79306666s20.8352 5.20853333 37.50293333 25.0016c16.66773333 19.79306667 44.79573333 42.71146667 32.2944-7.29173333s11.4592 12.50133333 42.71146667 14.58453333c4.16746667 8.33386667 10.41706667 17.70986667 20.8352 21.87733334 10.41706667 4.16746667 13.5424 22.9184 13.5424 22.9184h26.04373333l-8.33386666 11.4592s23.96053333 10.41706667 25.0016 29.16906666c10.41706667-5.20853333 10.41706667-5.20853333 17.70986666 7.29173334 7.2928 12.50133333 5.20853333 28.12693333 0 33.33653333-5.20853333 5.20853333 13.5424 17.70986667 17.70986667 17.70986667s18.75306667 60.4224 12.5024 66.67306666zM860.34026667 96.31573332999994s-18.752 1.04213333-26.04373334-27.08586666c-4.16746667-11.4592-12.50133333-27.08586667 0-33.33653334 12.50133333-6.25066667 13.888-9.376 13.888-9.376s14.23893333 19.79306667 12.15573334 32.81493334c-2.08426667 13.02293333 13.5424 26.5664 0 36.98346666z"  horiz-adv-x="1024" />

    
    <glyph glyph-name="SST_TDE" unicode="&#59103;" d="M896.7 377.29999999999995c-3 20.2-11.7 38-23.6 54.3-10.6 14.6-21.5 29-32.5 43.2-14 18.4-28.2 36.6-42.6 54.6-8.8 10.9-20.6 15.4-34.7 15.4-41.5-0.1-83.1 0-124.7-0.1-3.6 0-7.1-0.4-10.6-1.2-13.8-3.6-21.5-14.6-21.5-30.2v-284.7c0-1.9 0-3.8 0.2-5.8 1.4-14.4 14.7-26.3 28.5-25.1 4.1 25 15.6 46.3 34.8 62.9 19.5 16.8 42.4 25 68 25 42.5 0.1 91.9-30.4 101.5-88.5h18.1c5.5 0.1 11.2-0.3 16.5 0.8 14.1 3 22.7 14.5 22.7 29.6 0.1 47.5 0 95.1 0 142.6 0.4 2.6 0.3 4.9-0.1 7.2zM693.8 371V487.1h5.2c20.3 0 40.8-0.3 61.2 0.1 6.5 0.4 12.8-2.7 16.5-8 21.4-29.3 42.7-58.8 63.7-88.5 3.5-5 5.3-11.2 7.8-16.9 0.4-0.7 0-1.7 0-2.8H693.8zM306.4 249.29999999999995c36.9 0 66.8-29.8 67-66.6 0-17.8-7.1-34.9-19.7-47.4-12.6-12.6-29.7-19.6-47.5-19.6-36.9 0-66.8 30-66.7 66.9 0 36.8 30 66.7 66.9 66.7z m431.4 0c17.8 0 34.8-7.2 47.3-19.8 12.5-12.6 19.4-29.8 19.2-47.5-0.3-36.9-30.3-66.5-67.2-66.3-37 0.1-67 30.1-66.9 67.1 0.1 17.8 7.3 34.8 20 47.2 12.7 12.5 29.8 19.4 47.6 19.3z m0 0M512.9 652.3H177.6c-28 0-50.7-22.7-50.7-50.7V243c0-28 22.7-50.7 50.7-50.7h25.1c6.3 51.4 50 91.1 103.1 91.1s96.8-39.8 103.1-91.1h104c28 0 50.7 22.7 50.7 50.7V601.6c0 28-22.7 50.7-50.7 50.7z"  horiz-adv-x="1024" />

    
    <glyph glyph-name="TPM_ALL" unicode="&#59109;" d="M315.90562323 362.37062936999996H379.72120436l-32.17592326 102.60544418zM512 746.87291236c-200.38449988 0-362.87291236-162.48841249-362.87291236-362.87291236s162.48841249-362.87291236 362.87291236-362.87291236 362.87291236 162.48841249 362.87291236 362.87291236-162.48841249 362.87291236-362.87291236 362.87291236z m-85.98121715-494.07917723c-6.43518466 0-11.97659365 4.64763334-14.30041035 11.61908341l-12.8703693 39.50488356c-2.32381667 6.97145003-8.04398081 11.61908339-14.30041035 11.61908338h-72.21707222c-6.43518466 0-12.15534879-4.82638849-14.47916546-11.97659363l-11.97659367-38.96861816c-2.14506155-7.15020517-8.04398081-11.97659365-14.47916546-11.97659369h-39.32612843L319.30197065 518.06634694c2.32381667 6.97145003 8.04398081 11.61908339 14.30041037 11.61908339h29.13708605c6.25642953 0 11.97659365-4.46887824 14.30041037-11.44032828l89.91382997-265.27261179h-40.93492456z m193.05553957 0H508.42489743c-8.40149107 0-15.37294112 8.04398081-15.37294115 18.2330232V527.36161366h47.37010927v-209.6797666c0-10.01028723 6.79269492-18.23302318 15.37294111-18.2330232h63.27931576v-46.65508873z m50.40894643 0c-8.40149107 0-15.37294112 8.04398081-15.37294111 18.2330232V527.36161366H701.48043701v-209.6797666c0-10.01028723 6.79269492-18.23302318 15.37294109-18.2330232H780.13269388v-46.65508873h-110.64942503z"  horiz-adv-x="1024" />

    
    <glyph glyph-name="TPM_AIR" unicode="&#59169;" d="M829.2 315.4c-42.3-12.8-472.4-137.3-472.4-137.3s-119.1-39.9-207.2 67.6l97.8 40.6c17-5.8 32.8-5.3 53.8 1.5l111.2 27.5-166.8 247s-33.8 53.6 83.3 27.4c0 0 211.9-162.3 250.1-192.1 0 0 19.5-11.1 55.6 0l166.8 54.9s112.9 34.5 138.9-27.4c27.3-64.8-68.9-96.9-111.1-109.7z m-698.4-49.8c-43.6 48.7-51.9 77.3-51.9 77.3s9 59.5 83.3 0c21.7-17.4 44.7-29.3 59.4-39.1l-90.8-38.2z m0 0"  horiz-adv-x="1024" />

    
    <glyph glyph-name="TPM_RAIL" unicode="&#59170;" d="M868.9 205.60000000000002H66.8V161h802.1c12.2 0 22.1 10 22.1 22.3s-9.9 22.3-22.1 22.3z m0 0M906.8 428.6H692.4v89.2h103.9C716.5 567.9 615.9 607 515.9 607h-449v-356.8h802.5c48.2 0 87.9 9.4 87.9 89.1-0.1 23.1-18.8 55.3-50.5 89.3z m-479.2 0h-88.3v89.2h88.3v-89.2z m176.5 0h-88.3v89.2h88.3v-89.2z m0 0"  horiz-adv-x="1024" />

    
    <glyph glyph-name="TPM_ROAD" unicode="&#59171;" d="M896.7 377.29999999999995c-3 20.2-11.7 38-23.6 54.3-10.6 14.6-21.5 29-32.5 43.2-14 18.4-28.2 36.6-42.6 54.6-8.8 10.9-20.6 15.4-34.7 15.4-41.5-0.1-83.1 0-124.7-0.1-3.6 0-7.1-0.4-10.6-1.2-13.8-3.6-21.5-14.6-21.5-30.2v-284.7c0-1.9 0-3.8 0.2-5.8 1.4-14.4 14.7-26.3 28.5-25.1 4.1 25 15.6 46.3 34.8 62.9 19.5 16.8 42.4 25 68 25 42.5 0.1 91.9-30.4 101.5-88.5h18.1c5.5 0.1 11.2-0.3 16.5 0.8 14.1 3 22.7 14.5 22.7 29.6 0.1 47.5 0 95.1 0 142.6 0.4 2.6 0.3 4.9-0.1 7.2zM693.8 371V487.1h5.2c20.3 0 40.8-0.3 61.2 0.1 6.5 0.4 12.8-2.7 16.5-8 21.4-29.3 42.7-58.8 63.7-88.5 3.5-5 5.3-11.2 7.8-16.9 0.4-0.7 0-1.7 0-2.8H693.8zM306.4 249.29999999999995c36.9 0 66.8-29.8 67-66.6 0-17.8-7.1-34.9-19.7-47.4-12.6-12.6-29.7-19.6-47.5-19.6-36.9 0-66.8 30-66.7 66.9 0 36.8 30 66.7 66.9 66.7z m431.4 0c17.8 0 34.8-7.2 47.3-19.8 12.5-12.6 19.4-29.8 19.2-47.5-0.3-36.9-30.3-66.5-67.2-66.3-37 0.1-67 30.1-66.9 67.1 0.1 17.8 7.3 34.8 20 47.2 12.7 12.5 29.8 19.4 47.6 19.3z m0 0M512.9 652.3H177.6c-28 0-50.7-22.7-50.7-50.7V243c0-28 22.7-50.7 50.7-50.7h25.1c6.3 51.4 50 91.1 103.1 91.1s96.8-39.8 103.1-91.1h104c28 0 50.7 22.7 50.7 50.7V601.6c0 28-22.7 50.7-50.7 50.7z"  horiz-adv-x="1024" />

    
    <glyph glyph-name="TPM_SEA" unicode="&#59172;" d="M871.4 67H130.5c-11.4 0-20.7 9.2-20.7 20.7v55.1L66.7 269.6c-2.1 6.3-1.1 13.3 2.8 18.7 3.9 5.4 10.1 8.6 16.8 8.6h58.9c4.2 0 8.4-1.3 11.8-3.7l29-20.3h388l45.8 36.6c3.7 2.9 8.2 4.5 12.9 4.5H940c7.7 0 14.8-4.3 18.3-11.1 3.6-6.8 3-15.1-1.4-21.4l-92.1-131.7 23.6-10.5c9.2-4.1 14.2-14.3 11.6-24.1l-8.6-32.8c-2.4-9.1-10.6-15.4-20-15.4zM163.9 552.5v-111.1h194.6V552.5H163.9z m59.9-77c0-6.1-4.9-11-11-11s-11 4.9-11 11v42.9c0 6.1 4.9 11 11 11s11-4.9 11-11v-42.9z m49.3 0c0-6.1-4.9-11-11-11s-11 4.9-11 11v42.9c0 6.1 4.9 11 11 11s11-4.9 11-11v-42.9z m49.3 0c0-6.1-4.9-11-11-11s-11 4.9-11 11v42.9c0 6.1 4.9 11 11 11s11-4.9 11-11v-42.9zM403 552.5v-111.1h194.6V552.5H403z m60-77c0-6.1-4.9-11-11-11s-11 4.9-11 11v42.9c0 6.1 4.9 11 11 11s11-4.9 11-11v-42.9z m49.3 0c0-6.1-4.9-11-11-11s-11 4.9-11 11v42.9c0 6.1 4.9 11 11 11s11-4.9 11-11v-42.9z m49.3 0c0-6.1-4.9-11-11-11s-11 4.9-11 11v42.9c0 6.1 4.9 11 11 11s11-4.9 11-11v-42.9zM163.9 701v-111.1h194.6V701H163.9z m59.9-77c0-6.1-4.9-11-11-11s-11 4.9-11 11v42.9c0 6.1 4.9 11 11 11s11-4.9 11-11V624z m49.3 0c0-6.1-4.9-11-11-11s-11 4.9-11 11v42.9c0 6.1 4.9 11 11 11s11-4.9 11-11V624z m49.3 0c0-6.1-4.9-11-11-11s-11 4.9-11 11v42.9c0 6.1 4.9 11 11 11s11-4.9 11-11V624zM163.9 407.6v-111.1h194.6V407.6H163.9z m59.9-76.9c0-6.1-4.9-11-11-11s-11 4.9-11 11v42.9c0 6.1 4.9 11 11 11s11-4.9 11-11v-42.9z m49.3 0c0-6.1-4.9-11-11-11s-11 4.9-11 11v42.9c0 6.1 4.9 11 11 11s11-4.9 11-11v-42.9z m49.3 0c0-6.1-4.9-11-11-11s-11 4.9-11 11v42.9c0 6.1 4.9 11 11 11s11-4.9 11-11v-42.9zM390.9 407.6v-111.1h194.6V407.6H390.9z m60-76.9c0-6.1-4.9-11-11-11s-11 4.9-11 11v42.9c0 6.1 4.9 11 11 11s11-4.9 11-11v-42.9z m49.3 0c0-6.1-4.9-11-11-11s-11 4.9-11 11v42.9c0 6.1 4.9 11 11 11s11-4.9 11-11v-42.9z m49.3 0c0-6.1-4.9-11-11-11s-11 4.9-11 11v42.9c0 6.1 4.9 11 11 11s11-4.9 11-11v-42.9zM721.1 529.5h59.3v-210.2h-59.3zM814.6 529.5h59.3v-210.2h-59.3z"  horiz-adv-x="1024" />

    
    <glyph glyph-name="TPM_EXPRESS" unicode="&#59174;" d="M933.23 392.83c-3 20.22-11.72 38-23.58 54.34-10.65 14.56-57.21 59.39-75.08 78.83-9.47 10.33-20.6 15.4-34.68 15.35-41.53-0.14-83.12 0-124.74-0.09a43.63 43.63 0 0 1-10.58-1.23c-13.75-3.64-21.45-14.6-21.45-30.19v-265.66c0-1.89 0-3.83 0.19-5.76 1.42-14.36 14.69-26.27 28.49-25.14 4.06 25 15.6 46.26 34.83 62.94 19.47 16.82 42.38 25 68 25 42.53 0.09 91.86-30.43 101.54-88.55h18.14c5.48 0.09 11.2-0.33 16.49 0.8 14.08 3 22.68 14.46 22.68 29.62 0.09 47.53 0 95.12 0 142.6a33.76 33.76 0 0 1-0.28 7.09z m-235.89-6.33l-1 97.14h6.2c20.32 0 73.82-0.28 94.24 0.09 6.52 0.39 12.42-2.92 16.49-8 9.16-11.5 52.48-55 63.69-69.45 3.72-4.8 7.32-7.79 7.8-16.87v-2.84H696.34z m76.94-121.72a67 67 0 1 0-47.56-19.24 66.62 66.62 0 0 0 47.56 19.24z m0 0M195.6 397.04l-38.68-2.94 0.22 19.72 34.87 2.65 0.23 20.4-34.88-2.65 0.18 15.89 37.59 2.86 0.24 21.35-60.05-4.56-1.11-100.01 61.14 4.64 0.25 22.65zM222.41 376.45000000000005l11.66 24.19 9.46-22.59 23.5 1.79-18.79 36.47 18.3 35.88-22.21-1.69-9.94-20.93-8.11 19.56-23.9-1.81 17.71-33.15-19.5-39.38 21.82 1.66zM294.16 388.92a18.84 18.84 0 0 1 6.78-6 16 16 0 0 1 8.46-1.54q9.6 0.73 16 10.72t6.6 28.11q0.18 16.37-5.46 27.06t-16.18 9.88a17.53 17.53 0 0 1-9.78-3.95q-3.29-2.64-7.27-9.69l0.12 10.71-18.85-1.43-1.1-100 20.33 1.54z m2.89 42.69q2.62 4.36 6.47 4.65 3.56 0.27 6-3.67t2.33-12.74q-0.1-9.55-2.52-13.72t-5.93-4.44q-4-0.3-6.58 3.66t-2.48 12.56q0.1 9.34 2.72 13.69zM361.92 411.31q0.19 17.4 3.38 24 2.23 4.67 6.18 5 2.08 0.16 5.62-1.62l6.45 20.26q-5.25 3.42-9.7 3.08a10.63 10.63 0 0 1-7.18-3.44q-2.93-3.12-5.73-11l0.13 11.87-18.85-1.43-0.8-72.45 20.23 1.42zM399.17 392.29q5.94-3.6 16.38-2.81 12 0.91 18.5 6.14t11.15 16.49l-19.81 1a18.38 18.38 0 0 0-3.56-4.84 10 10 0 0 0-5.66-2.48q-4.7-0.36-7.56 4.13-2 3.12-2.51 9.76l40.36 3.07v3.14q0.16 14.33-3.16 23t-9.79 12.89q-6.48 4.21-17.76 3.35A28.41 28.41 0 0 1 393.89 453q-8-11.11-8.19-28.09-0.13-11.94 3.7-20.47t9.77-12.15z m9.55 50.65q2.93 5.47 7.73 5.84a7.22 7.22 0 0 0 6.66-3q2.51-3.29 3-11.29L406.3 433q0.56 6.53 2.43 9.95zM481.36 409.68a7.68 7.68 0 0 0-5.91 1.66q-2.2 1.94-3.38 6.76L452 414q1.62-10.31 7.66-15.5t20.44-4.1q10.19 0.77 16.14 4.73a24 24 0 0 1 8.76 10.1 30.36 30.36 0 0 1 2.88 12.41 23.67 23.67 0 0 1-2.47 11.18 16.3 16.3 0 0 1-7.41 7.4q-4.87 2.42-14.89 3.23-6.62 0.59-8.58 1.8a4.15 4.15 0 0 0-1.93 3.87 6.22 6.22 0 0 0 1.6 4.17 7.08 7.08 0 0 0 5 2 7.57 7.57 0 0 0 5.71-1.75 8.71 8.71 0 0 0 2.42-4.93l19.12 4a32.47 32.47 0 0 1-4.85 10.88 16 16 0 0 1-7.4 5.57q-4.46 1.64-13.85 0.92-8.9-0.68-14.22-3.63a21.56 21.56 0 0 1-8.4-8.37 25.57 25.57 0 0 1-3.15-12.57 22.55 22.55 0 0 1 2.67-11.44 15.07 15.07 0 0 1 6.8-6.74q4.06-1.84 14.52-3.56 7-1.17 8.62-2.2a4.88 4.88 0 0 0 2.22-4.46 6.61 6.61 0 0 0-1.78-4.56 8.93 8.93 0 0 0-6.27-2.77zM543.24 414.38a7.68 7.68 0 0 0-5.91 1.66q-2.2 1.94-3.39 6.76l-20-4.11q1.62-10.31 7.66-15.5t20.44-4.1q10.19 0.77 16.14 4.73a24 24 0 0 1 8.76 10.1 30.37 30.37 0 0 1 2.88 12.41 23.67 23.67 0 0 1-2.47 11.18 16.3 16.3 0 0 1-7.41 7.4q-4.87 2.42-14.89 3.23-6.62 0.59-8.58 1.8a4.15 4.15 0 0 0-1.93 3.87 6.21 6.21 0 0 0 1.6 4.17 7.08 7.08 0 0 0 5 2 7.57 7.57 0 0 0 5.71-1.75 8.71 8.71 0 0 0 2.42-4.93l19.12 4a32.48 32.48 0 0 1-4.85 10.88 16 16 0 0 1-7.4 5.57q-4.46 1.64-13.85 0.92-8.9-0.68-14.22-3.63a21.55 21.55 0 0 1-8.4-8.37 25.57 25.57 0 0 1-3.15-12.57 22.54 22.54 0 0 1 2.67-11.44A15.07 15.07 0 0 1 526 432q4.06-1.84 14.52-3.56 7-1.17 8.62-2.2a4.88 4.88 0 0 0 2.22-4.46 6.61 6.61 0 0 0-1.78-4.56 8.93 8.93 0 0 0-6.34-2.84zM302.91 264.78a66.75 66.75 0 1 1 67-66.62 66.81 66.81 0 0 1-67.05 66.62zM549.45 636.8399999999999H151.13a60.8 60.8 0 0 1-60.72-60.7v-317.62a60.8 60.8 0 0 1 60.72-60.7h57l1.07 8.79a93.84 93.84 0 0 0 186.26 0l1.07-8.79h152.9a60.8 60.8 0 0 1 60.7 60.71V576.12a60.8 60.8 0 0 1-60.68 60.72z m40.7-270.94l-479.74-60V491.73l479.74 57.12z"  horiz-adv-x="1024" />

    
    <glyph glyph-name="SST_BIN" unicode="&#59349;" d="M446.1 638.1h130.8c18.9 0 34.2 15.3 34.2 34.2 0 18.9-15.3 34.2-34.2 34.2H446.1c-18.5-0.5-33.2-15.7-33.2-34.2 0.1-18.5 14.8-33.7 33.2-34.2zM729.4 658.1h-70.2c0.1-1.6 0.3-3.2 0.3-4.9v-22.8c0-24.2-19.7-43.9-43.8-43.9H408.3c-11.6 0-22.8 4.6-31 12.9-8.2 8.2-12.8 19.4-12.8 31v22.8c0 1.6 0.1 3.2 0.3 4.9h-70.2c-36.3 0-65.8-29.4-65.8-65.8v-465c0-36.3 29.5-65.8 65.8-65.8h434.8c36.3 0 65.7 29.4 65.8 65.8v465c0 36.3-29.5 65.8-65.8 65.8z m-74-445.3H368.6c-23.1 0-41.8 18.7-41.8 41.8 0 23.1 18.7 41.8 41.8 41.8h286.9c23.1 0 41.8-18.7 41.8-41.8-0.1-23.1-18.8-41.8-41.9-41.8z m0 175.8H368.6c-23.1 0-41.8 18.7-41.8 41.8 0 23.1 18.7 41.8 41.8 41.8h286.9c23.1 0 41.8-18.7 41.8-41.8-0.1-23.1-18.8-41.8-41.9-41.8z"  horiz-adv-x="1024" />

    
    <glyph glyph-name="SST_POL" unicode="&#59351;" d="M769.2 471.8L528.4 715.5c-8.5 8.4-22.1 8.6-30.8 0.3l-242.9-244h-73.8v-425.7l662.2 0.9V471.8h-73.9zM512.5 669l194.1-197.2h-388L512.5 669zM370.1 180.79999999999995c0-22.2-21.2-40.1-47.3-40.1-26.1 0-47.3 18-47.3 40.1V337c0 22.2 21.2 40.1 47.3 40.1 26.1 0 47.3-18 47.3-40.1v-156.2z m189.2 0c0-22.2-21.2-40.1-47.3-40.1-26.1 0-47.3 18-47.3 40.1V337c0 22.2 21.2 40.1 47.3 40.1 26.1 0 47.3-18 47.3-40.1v-156.2z m189.2 0c0-22.2-21.2-40.1-47.3-40.1-26.1 0-47.3 18-47.3 40.1V337c0 22.2 21.2 40.1 47.3 40.1 26.1 0 47.3-18 47.3-40.1v-156.2z"  horiz-adv-x="1024" />

    
    <glyph glyph-name="SST_VDP" unicode="&#59352;" d="M386 594.8c-8 5.3-20.6 11.8-32.5 21.4-40.6 32.5-45.5 0-45.5 0s4.5-15.7 28.3-42.2l49.7 20.8zM490.2 601.2l-60.8-15c-11.5-3.7-20.1-4-29.4-0.8l-53.5-22.2c48.2-58.7 113.3-37 113.3-37s235.1 68 258.2 75c23 7 75.6 24.5 60.7 60-14.2 33.9-75.9 15-75.9 15l-91.2-30c-19.7-6.1-30.4 0-30.4 0-20.9 16.3-136.7 104.9-136.7 104.9-64 14.3-45.6-15-45.6-15l91.3-134.9zM912.6 225.20000000000005c-3.2 6.2-9.6 10-16.5 10H619.7c-4.2 0-8.3-1.4-11.6-4.1l-41.2-32.9H217.7l-26.1 18.2c-3.1 2.2-6.8 3.4-10.7 3.4h-53c-6 0-11.6-2.9-15.1-7.8s-4.4-11.1-2.5-16.8l38.8-114.1v-49.6c0-10.3 8.3-18.6 18.6-18.6h666.6c8.4 0 15.8 5.7 18 13.9l7.7 29.6c2.3 8.8-2.1 18-10.4 21.7l-21.2 9.4L911.3 206c4 5.7 4.4 13.1 1.3 19.2zM232.4 385.9h287.1v-164.1H232.4zM699.1 429.1h53.4V240h-53.4zM783.3 429.1h53.4V240h-53.4z"  horiz-adv-x="1024" />

    
    <glyph glyph-name="SST_VAR" unicode="&#59353;" d="M498.5 313.70000000000005c3.9-5.9 10.1-10 17.1-11.2 7.4 0.8 14 5 17.9 11.2 0 0 129 141.1 150.5 170.6 22.8 31.5 35.3 69.3 35.8 108.1C718.7 703.3 626 792.6 512 792.6c-114 0-206.7-89.3-207.9-200.2 0.7-42.5 15.6-83.5 42.1-116.7 1.9-3.6 148.5-156.1 152.3-162z m15.4 355.9c43.6-0.3 78.8-34.8 78.7-77.2-0.7-42.8-36.6-77.1-80.6-77-43.6 0.8-78.4 35.6-77.9 78.1 0.6 42.4 36.2 76.4 79.8 76.1zM256.8 266.70000000000005v-291.3h510.4V266.70000000000005H256.8z m157.3-201.8c0-16-12.9-28.9-28.9-28.9-16 0-28.9 12.9-28.9 28.9V177.29999999999995c0 16 12.9 28.9 28.9 28.9 15.9 0 28.9-12.9 28.9-28.9v-112.4z m129.2 0c0-16-12.9-28.9-28.9-28.9-15.9 0-28.9 12.9-28.9 28.9V177.29999999999995c0 16 12.9 28.9 28.9 28.9 16 0 28.9-12.9 28.9-28.9v-112.4z m129.3 0c0-16-12.9-28.9-28.9-28.9-16 0-28.9 12.9-28.9 28.9V177.29999999999995c0 16 12.9 28.9 28.9 28.9 16 0 28.9-12.9 28.9-28.9v-112.4z"  horiz-adv-x="1024" />

    
    <glyph glyph-name="SST_LPD" unicode="&#59354;" d="M301.8 246.20000000000005c-37.8 0-68.4-30.5-68.5-68.2 0-37.7 30.5-68.4 68.3-68.4 18.2-0.1 35.7 7.1 48.5 20 12.9 12.9 20.1 30.3 20.1 48.5-0.1 37.7-30.7 68.2-68.4 68.1zM905.4 377.20000000000005c-3.1 20.6-12 38.9-24.1 55.5-10.9 14.9-22 29.6-33.3 44.2-14.3 18.8-28.8 37.4-43.5 55.9-9 11.1-21.1 15.7-35.5 15.7-42.5-0.1-85 0-127.6-0.1-3.6 0-7.3-0.4-10.8-1.3-14.1-3.7-21.9-15-21.9-30.9v-291.1c0-1.9 0-3.9 0.2-5.9 1.4-14.7 15-26.8 29.1-25.7 4.2 25.6 16 47.3 35.6 64.3 19.9 17.2 43.3 25.6 69.6 25.6 43.5 0.1 93.9-31.1 103.8-90.5h18.6c5.6 0.1 11.4-0.3 16.9 0.8 14.4 3.1 23.2 14.8 23.2 30.3 0.1 48.6 0 97.3 0 145.8 0.2 2.6 0.1 5-0.3 7.4z m-49.5-6.4h-158V489.5h5.3c20.8 0 41.8-0.3 62.6 0.1 6.7 0.4 13.1-2.7 16.9-8.2 21.9-30 43.7-60.1 65.1-90.5 3.6-5.1 5.4-11.4 8-17.2 0.4-0.8 0.1-1.8 0.1-2.9zM742.9 246.20000000000005c-18.2 0.1-35.7-6.9-48.6-19.7-13-12.8-20.3-30.1-20.4-48.3-0.1-37.9 30.6-68.6 68.4-68.6 37.7-0.3 68.4 30.1 68.7 67.8 0.2 18.2-6.9 35.7-19.6 48.6-12.9 12.9-30.4 20.2-48.5 20.2zM513 658.4H170.1c-28.7 0-51.9-23.2-51.9-51.8v-366.7c0-28.7 23.2-51.9 51.9-51.9h25.7c6.4 52.5 51.1 93.2 105.4 93.2s99-40.7 105.4-93.2H513c28.6 0 51.8 23.2 51.8 51.9V606.5c0 28.6-23.2 51.9-51.8 51.9z m-66.2-204.8l-63.2-63.2c-5.6-5.7-13.9-7.9-21.6-5.8a22.5 22.5 0 0 0-15.8 15.8c-2 7.7 0.1 15.9 5.8 21.6l25 25.1H230.5c-12.3 0-22.4 10-22.4 22.3s10 22.4 22.4 22.4h146.6l-25 25c-8.7 8.7-8.7 22.9 0 31.6 8.7 8.7 22.9 8.7 31.6 0l63.2-63.2c4.2-4.2 6.6-9.9 6.6-15.8-0.1-6-2.5-11.6-6.7-15.8z"  horiz-adv-x="1024" />

    
    <glyph glyph-name="SST_CDL" unicode="&#59355;" d="M571.8 413.6c0-4-3.2-7.4-7.2-7.4h-99.1c-4 0-7.2 3.3-7.2 7.4V558.4H206.7V86c0-4.1 3.2-7.4 7.2-7.4H810c4 0 7.2 3.3 7.2 7.4V558.4H571.8v-144.8zM458.3 606.7s1 2.6 2.2 5.9l39.5 64.2c1.2 3.3 11.9 5.9 15 5.9 3.1 0 15-2.6 16.2-5.9l38.4-64.2c1.2-3.3 2.2-5.9 2.2-5.9v-4.7h245.4c0 3.4-2.6 8-5.7 10.1l-108.3 73.3c-3.1 2.1-8.9 3.9-12.9 3.9H333.5c-3.9 0-9.7-1.7-12.9-3.9l-108.3-73.3c-3.1-2.1-5.6-6.7-5.6-10.1h251.6v4.7z"  horiz-adv-x="1024" />

    
    <glyph glyph-name="SST_BCL" unicode="&#59356;" d="M755.4 563.7c-24.9 24.9-68.4 24.9-93.2 0L443.4 344.9l-81.6 81.6c-24.9 24.9-68.3 24.9-93.3 0-25.7-25.7-25.7-67.6 0-93.3L396.8 205c12.5-12.4 29-19.3 46.6-19.3 17.5 0 34.1 6.8 46.7 19.3l265.3 265.4c12.5 12.4 19.4 29 19.4 46.6s-6.9 34.2-19.4 46.7z"  horiz-adv-x="1024" />

    
    <glyph glyph-name="SST_TLO" unicode="&#59357;" d="M423.9 272.5c3.1-14.2 17.4-23.4 32.1-20.4l342.8 70.4c14.6 3 23.9 17 20.8 31.2l-75.7 349.4c-3.1 14.2-17.5 23.3-32.1 20.3L369.1 653c-7-1.5-13.2-5.6-17.1-11.4-3.9-5.9-5.3-13-3.8-19.8l75.7-349.3zM872.7 247.29999999999995c-2.5 12.1-14.5 20-26.6 17.4L406.6 172c-12.9 20.2-33.9 33.8-57.5 37.5l-85.9 406.8c-1.7 8.1-7.6 14.5-15.5 16.9-0.9 1.1-2.1 2.1-3.2 3l-57.8 44.5c-10 7-23.7 4.9-31.2-4.8-7.4-9.7-5.9-23.5 3.5-31.3l57.7-44.3c1.4-1 2.9-2 4.5-2.6l83-393.5c-36.9-15.5-57.5-54.9-49.4-94 4.5-21.6 17.5-40.6 36-52.6 18.5-12.2 41.1-16.4 62.7-11.7 21.6 4.5 40.6 17.5 52.6 36 9.1 14 13.8 30.4 13.5 47.1l435.7 91.9c12.2 2.3 20.1 14.2 17.4 26.4M374 102.60000000000002c-6.6-10.1-16.6-17-28.4-19.5-11.7-2.5-23.7-0.3-33.8 6.3-16.7 10.9-24.3 31.4-18.6 50.5 5.7 19.1 23.2 32.2 43.1 32.2 16.5-0.1 31.6-9.1 39.5-23.5 7.8-14.6 7.1-32.2-1.8-46"  horiz-adv-x="1024" />

    
    <glyph glyph-name="SST_ETA" unicode="&#59358;" d="M749.6 238.79999999999995c-18 0.1-35.4-6.9-48.2-19.5-12.8-12.7-20.1-29.9-20.3-47.9-0.1-37.5 30.3-68 67.8-68.1 37.4-0.3 67.8 29.8 68.1 67.2 0.2 18-6.8 35.4-19.5 48.2-12.6 12.8-29.9 20-47.9 20.1zM309.3 232.89999999999998c-35.9 0-64.9-29-64.9-64.7 0-35.8 28.9-64.9 64.8-64.9 17.3-0.1 33.8 6.8 46 19 12.2 12.2 19.1 28.8 19.1 46-0.2 35.7-29.2 64.6-65 64.6zM910.7 368.6c-3.1 20.5-11.9 38.5-23.9 55.1-10.8 14.8-21.8 29.4-33 43.8-14.2 18.6-28.5 37.1-43.1 55.4-8.9 11.1-20.9 15.6-35.2 15.6-42.1-0.1-84.3 0-126.5-0.1-3.6 0-7.2-0.4-10.7-1.2-13.9-3.7-21.7-14.8-21.7-30.6V218c0-1.9 0-3.9 0.2-5.8 1.4-14.6 14.9-26.6 28.9-25.5 4.1 25.4 15.8 46.9 35.3 63.8 19.7 17.1 43 25.4 69 25.4 43.1 0.1 93.1-30.8 102.9-89.8h18.4c5.5 0.1 11.3-0.3 16.7 0.8 14.3 3.1 23 14.7 23 30 0.1 48.2 0 96.4 0 144.6 0.2 2.3 0.1 4.7-0.3 7.1z m-49.1-6.4H705V479.9h5.3c20.6 0 41.4-0.3 62.1 0.1 6.6 0.4 13-2.7 16.7-8.1 21.7-29.7 43.3-59.6 64.6-89.7 3.6-5 5.4-11.3 7.9-17.1 0.3-0.8 0-1.8 0-2.9zM516.6 664.7H181c-37.5 0-68.1-30-68.1-66.9v-350.4c0-36.9 30.6-66.9 68.1-66.9h20.2c8.6 0 16 6.4 17.2 14.9 7.2 51.2 50.9 74.1 90.9 74.1 43.7 0 80.7-31.8 86-73.9 1.1-8.7 8.5-15.2 17.2-15.2h104.1c37.5 0 68 30 68.1 66.9V597.8c0 36.9-30.5 66.9-68.1 66.9z m33.5-417.2c0-17.8-15-32.2-33.4-32.2h-89.9c-13.6 51.7-61.6 89.1-117.4 89.1-59.7 0-107.9-35.9-122.2-89.1H181c-18.4 0-33.4 14.5-33.5 32.2V597.8c0 17.8 15 32.2 33.5 32.2h335.6c18.4 0 33.4-14.5 33.4-32.2v-350.3z"  horiz-adv-x="1024" />

    
    <glyph glyph-name="TPM_COMBO" unicode="&#59363;" d="M918.48501728 612.35655111c0 76.11885037-58.51312987 134.63198025-134.63198025 134.63198025-23.43114272 0-46.86228543-5.82542222-64.46800592-17.6057205-58.51312987 41.0368632-128.80655803 64.46800592-204.92540839 64.46800594-58.51312987 0-117.15571358-11.65084445-169.84342124-41.03686322l64.46800593-70.29342815c81.94427259 35.08198717 175.66884347 23.43114272 251.78769383-23.43114271-5.82542222-11.65084445-11.65084445-29.25656494-11.65084444-46.86228544 0-70.29342815 58.51312987-134.63198025 134.63198023-134.63198025h93.72457087c0 11.65084445-5.82542222 17.6057205-5.82542221 29.25656494 29.12711111 23.56059653 52.55825383 58.6425837 46.73283159 105.50486914zM631.6153363 184.90001383000003c-23.43114272 41.0368632-70.29342815 64.46800592-117.15571358 64.46800592s-93.72457086-29.25656494-111.20083754-70.29342814c-23.43114272-41.0368632-23.43114272-93.72457086 0-134.63198025 23.43114272-46.86228543 70.29342815-70.29342815 117.15571358-70.29342816 70.29342815 0 122.98113581 52.68770765 134.63198026 117.1557136 134.63198025 58.51312987 228.35655111 193.14511013 228.35655111 339.55738863h-93.72457088c0-111.33029136-64.46800592-204.92540839-158.06312295-245.9622716zM379.82764247 612.35655111c0 46.86228543-29.25656494 93.72457086-70.29342816 117.15571358-41.0368632 23.43114272-93.72457086 23.43114272-134.63198023 0-46.86228543-23.43114272-70.29342815-70.29342815-70.29342816-117.15571358 0-41.0368632 17.6057205-81.94427259 52.68770766-99.54999308-5.82542222-23.43114272-5.82542222-52.68770765-5.82542222-76.11885038 0-128.80655803 64.46800592-245.96227161 169.84342123-310.3008237l29.25656494 87.76969481c-70.29342815 46.86228543-111.20083753 128.80655803-111.20083753 216.57625285 0 17.6057205 5.82542222 29.25656494 5.82542222 46.86228542 76.11885037 0.12945383 134.63198025 58.6425837 134.63198025 134.76143408z"  horiz-adv-x="1024" />

    


  </font>
</defs>
</svg>
