<?xml version="1.0" standalone="no"?>
<!DOCTYPE svg PUBLIC "-//W3C//DTD SVG 1.1//EN" "http://www.w3.org/Graphics/SVG/1.1/DTD/svg11.dtd" >
<!--
2013-9-30: Created.
-->
<svg>
<metadata>
Created by iconfont
</metadata>
<defs>

<font id="iconfont" horiz-adv-x="1024" >
  <font-face
    font-family="iconfont"
    font-weight="500"
    font-stretch="normal"
    units-per-em="1024"
    ascent="896"
    descent="-128"
  />
    <missing-glyph />
    
    <glyph glyph-name="Right" unicode="&#59149;" d="M682.2 384L376.7 78.5l-34.9 34.9L612.4 384 341.8 654.6l34.9 34.9z"  horiz-adv-x="1024" />

    
    <glyph glyph-name="Cargo" unicode="&#59208;" d="M647.13183594 348.48669433h67.81311035c10.95886231 0 19.94018555 8.98132325 19.94018554 19.94018555 0 10.95886231-8.98132325 19.94018555-19.94018555 19.94018555H647.13183594c-10.95886231 0-19.94018555-8.98132325-19.94018555-19.94018555 0-11.04125977 8.98132325-19.94018555 19.94018555-19.94018555zM669.37915039 225.38488769000003h45.5657959c10.95886231 0 19.94018555 8.98132325 19.94018555 19.94018556 0 10.95886231-8.98132325 19.94018555-19.94018555 19.94018554H669.37915039c-10.95886231 0-19.94018555-8.98132325-19.94018555-19.94018554 0-10.95886231 8.98132325-19.94018555 19.94018555-19.94018555zM377.03295898 454.53222656h337.82958985c10.95886231 0 19.94018555 8.98132325 19.94018555 19.94018555 0 10.95886231-8.98132325 19.94018555-19.94018555 19.94018555h-337.82958985c-10.95886231 0-19.94018555-8.98132325-19.94018554-19.94018555 0-10.95886231 8.98132325-19.94018555 19.94018554-19.94018555zM771.4696045 654.92285156h-56.85424806v-35.34851074h56.85424805c9.72290039 0 17.63305664-7.91015625 17.63305664-17.63305665v-478.15246581c0-9.72290039-7.91015625-17.63305664-17.63305664-17.63305664H674.57019043c-9.72290039 0-17.63305664-7.91015625-17.63305665-17.63305664s7.91015625-17.63305664 17.63305665-17.63305664h96.89941407c29.25109864 0 52.98156739 23.73046875 52.98156738 52.98156739V601.94128418c-0.08239747 29.25109864-23.73046875 52.98156739-52.98156738 52.98156738zM336.9053955 654.92285156c-29.25109864 0-52.98156739-23.73046875-52.98156738-52.98156739V495.23657227c0-9.72290039 7.91015625-17.63305664 17.63305665-17.63305664 9.72290039 0 17.63305664 7.91015625 17.63305664 17.63305664V601.94128418c0 9.72290039 7.91015625 17.63305664 17.63305664 17.63305664h56.85424804v35.34851074h-56.77185058zM681.98596192 707.08044434h-58.25500489c-9.0637207 29.82788086-36.74926758 51.66320801-69.54345703 51.663208s-60.47973633-21.83532715-69.54345703-51.66320801h-58.25500489c-17.96264648 0-32.54699708-14.58435059-32.54699706-32.54699706V601.52929688c0-17.96264648 14.58435059-32.54699708 32.54699707-32.54699708h255.59692382c17.96264648 0 32.54699708 14.58435059 32.54699707 32.54699707v73.0041504c0 17.96264648-14.58435059 32.54699708-32.54699706 32.54699707z m-2.80151368-102.83203126H429.1081543v67.48352051h80.66711426c4.61425781 0 8.15734864 4.03747559 7.49816894 8.56933594-0.32958984 1.89514161-0.41198731 3.7902832-0.41198731 5.76782227 0 7.74536133 2.38952637 14.99633789 6.50939942 21.01135253 6.7565918 9.80529786 18.04504395 16.31469727 30.81665039 16.31469727s24.06005859-6.50939942 30.81665039-16.31469727c4.11987305-6.01501465 6.50939942-13.18359375 6.50939942-21.01135253 0-1.97753906-0.16479492-3.87268067-0.41198731-5.68542481-0.74157715-4.53186036 2.88391114-8.6517334 7.49816895-8.6517334H679.2668457v-67.48352051zM477.47546386 263.69970703H343.41479492L362.8605957 383.17602538999995h95.16906739zM343.41479492 228.26879883000004h134.06066895v-84.86938477H343.41479492zM610.21777344 246.47863769000003c0 1.89514161-0.32958984 3.7902832-0.90637208 5.52062989l-43.01147461 129.11682129c-2.05993653 7.49816895-8.89892578 12.60681153-16.64428711 12.60681152H260.19335937c-7.74536133 0-14.58435059-5.19104004-16.6442871-12.60681153l-43.258667-129.94079589c-0.49438477-1.64794922-0.65917969-3.3782959-0.65917969-5.02624512v-219.5892334c0-9.55810547 7.74536133-17.3034668 17.3034668-17.30346679h375.97961426c9.55810547 0 17.3034668 7.74536133 17.3034668 17.30346679V246.06665038999995c-0.08239747 0.16479492 0 0.32958984 0 0.41198731zM273.29455566 359.1159668h263.17749024l33.5357666-95.33386231H239.75878906l33.53576661 95.33386231z m302.23388673-315.25268555H234.23815918V228.76318359000004h341.29028321v-184.89990234z"  horiz-adv-x="1024" />

    
    <glyph glyph-name="Freight" unicode="&#59320;" d="M516.2 413.8m-199.1 0a199.1 199.1 0 1 1 398.2 0 199.1 199.1 0 1 1-398.2 0ZM775.9 753.3H248.1c-25.7 0-50.9-10.4-69.1-28.6-18.2-18.2-28.6-43.3-28.6-69.1V187c0-53.9 43.8-97.7 97.6-97.7h383.4c10.4 0 20.5-2.9 29.2-8.4l79.6-52.1c14-9.2 30.2-14 46.8-14.1 6.2 0 12.1 0.7 17.6 2.2l0.3 0.1c19.2 4.1 36.6 14.8 49 30.1 12.4 15.3 19.3 34.5 19.4 54.1V655.7c0 25.7-10.4 50.9-28.6 69.1s-43.1 28.5-68.8 28.5zM829.1 101c-0.1-8.2-2.4-16.1-6.6-22.8l-0.1-0.2c-6.2-9.1-15.6-15.5-26.3-18h-0.2c-2.7-0.5-5.4-0.8-8.2-0.8-8.1 0-16.1 2.4-23.1 7l-79.9 52c-15.7 10.2-34 15.6-52.8 15.6H248.2c-14 0-27.7 5.7-37.6 15.6-10 10.1-15.6 23.4-15.6 37.6V655.7c0 27.2 20.6 49.8 47.1 52.8v0.4h533.8c14 0 27.7-5.7 37.6-15.6 10.1-10.1 15.6-23.4 15.6-37.6V101zM651 447.9c8.7-1 17.4 3.2 22.1 10.6 4.7 7.4 4.7 17 0 24.5s-13.4 11.6-22.1 10.6h-88.7l59.7 59.3c6.5 6.5 9.1 16.1 6.8 25.1v0.2c-2 9-9.1 16.1-18.1 18.1h-0.2c-8.9 2.3-18.5-0.3-25.2-6.8l-67.7-68-8.2-9.8-8.2 9.8-65.8 68.1c-6.7 6.6-16.4 9.1-25.5 6.8l-0.5-0.1c-9.5-1.7-17-8.8-19.3-18.1v-0.1c-2.4-8.8 0.2-18.5 6.7-25.1l59.7-59.2H371c-11.5-1.5-20.1-11.3-20.1-22.9 0-11.6 8.6-21.4 20.1-22.9h111.6v-51.6H370c-8.7 1-17.4-3.2-22.1-10.6-4.7-7.4-4.7-17 0-24.5s13.4-11.6 22.1-10.6h112.5v-109.3c0-9.1 4.9-17.6 12.9-22.2 7.9-4.6 17.8-4.6 25.7 0 7.9 4.5 12.9 13 12.9 22.2V350.20000000000005h116.5c12.7 0 23 10.3 23 23s-10.3 23-23 23H533.9v51.6l117.1 0.1z"  horiz-adv-x="1024" />

    
    <glyph glyph-name="Routes" unicode="&#59342;" d="M662.36 573.03m-67.02 0a67.02 67.02 0 1 1 134.04 0 67.02 67.02 0 1 1-134.04 0ZM656.67 478.39a91.32 91.32 0 1 1-91.32 91.32 91.57 91.57 0 0 1 91.32-91.32z m0 148.39a57.07 57.07 0 1 0-57.07-57.06 57.21 57.21 0 0 0 57.07 57.05zM532.84 413.69l0.14-0.11 109.35-94.68a21.93 21.93 0 0 1 14.34-5.33h0.08a21.84 21.84 0 0 1 14.25 5.32l109.42 94.73 0.07 0.05a214.58 214.58 0 0 1 63.6 73.26 211.78 211.78 0 1 1-311.3-73.25z m123.83 339.7c92.6 0 167.94-75.34 167.94-167.94a168.76 168.76 0 0 0-70.53-136.81 19.82 19.82 0 0 1-2-1.6l-95.43-82.6L561.27 447a21.13 21.13 0 0 1-2 1.61 168.77 168.77 0 0 0-70.55 136.81c0 92.63 75.34 167.97 167.95 167.97zM766.75 268.73H237.56c-51.63 0-93.64 37.83-93.64 84.32s42 84.31 93.64 84.31h172.82a21.91 21.91 0 0 1 0 43.82H237.56c-75.8 0-137.46-57.48-137.46-128.18s61.66-128.14 137.45-128.14h529.2c51.64 0 93.65-37.82 93.65-84.31v-9c0-46.49-42-84.32-93.65-84.32H276a21.91 21.91 0 1 1 0-43.82h490.75c75.8 0 137.46 57.48 137.46 128.14v9c0.01 70.7-61.66 128.18-137.46 128.18z"  horiz-adv-x="1024" />

    
    <glyph glyph-name="Events" unicode="&#59359;" d="M750.875 275.90625H254.75c-48.375 0-87.75 35.4375-87.75 79.03125s39.375 79.03125 87.75 79.03125h162c11.34375 0 20.53125 9.1875 20.53125 20.53125 0 11.34375-9.1875 20.53125-20.53125 20.53125H254.75c-71.0625 0-128.90625-53.90625-128.90625-120.09375 0-66.28125 57.84375-120.09375 128.90625-120.09375h496.125c48.375 0 87.75-35.4375 87.75-79.03125v-8.4375c0-43.59375-39.375-79.03125-87.75-79.03125H385.4375c-11.34375 0-20.53125-9.1875-20.53125-20.53125s9.1875-20.53125 20.53125-20.53125h365.34375c71.0625 0 128.90625 53.90625 128.90625 120.09375v8.4375c0 66.1875-57.75 120.09375-128.8125 120.09375zM652.0625 789.28125c-105.84375 0-191.90625-86.0625-191.90625-191.90625 0-105.75 86.0625-191.8125 191.90625-191.8125C757.8125 405.5625 843.875 491.625 843.875 597.375c0 105.84375-86.0625 191.90625-191.8125 191.90625z m150.84375-191.8125c0-83.25-67.6875-150.9375-150.9375-150.9375s-150.9375 67.6875-150.9375 150.9375 67.6875 150.9375 150.9375 150.9375 150.9375-67.6875 150.9375-150.9375zM722.84375 598.65625H673.25V678.0625c0 11.71875-9.5625 21.1875-21.28125 21.1875s-21.1875-9.5625-21.1875-21.1875v-100.59375c0-11.71875 9.5625-21.1875 21.1875-21.1875 0.84375 0 1.6875 0.09375 2.53125 0.1875 0.84375-0.09375 1.6875-0.1875 2.53125-0.1875h65.625c11.71875 0 21.28125 9.5625 21.28125 21.1875s-9.46875 21.1875-21.09375 21.1875zM212.84375 271.40625m-62.8125 0a62.8125 62.8125 0 1 1 125.625 0 62.8125 62.8125 0 1 1-125.625 0ZM207.5 182.625c47.15625 0.09375 85.59375 38.4375 85.59375 85.59375 0 47.25-38.4375 85.59375-85.59375 85.59375-47.25 0-85.59375-38.4375-85.59375-85.59375s38.34375-85.59375 85.59375-85.59375z m0 139.125c29.4375 0 53.4375-24 53.53125-53.53125 0-29.53125-24-53.53125-53.53125-53.53125s-53.53125 24-53.53125 53.53125 24 53.53125 53.53125 53.53125zM664.8125 271.40625m-62.8125 0a62.8125 62.8125 0 1 1 125.625 0 62.8125 62.8125 0 1 1-125.625 0ZM659.5625 182.625c47.15625 0.09375 85.59375 38.4375 85.59375 85.59375 0 47.25-38.4375 85.59375-85.59375 85.59375-47.25 0-85.59375-38.4375-85.59375-85.59375-0.09375-47.15625 38.34375-85.59375 85.59375-85.59375z m0 139.125c29.4375 0 53.4375-24 53.53125-53.53125 0-29.53125-24-53.53125-53.53125-53.53125s-53.53125 24-53.53125 53.53125 24 53.53125 53.53125 53.53125zM451.25 51.75m-62.8125 0a62.8125 62.8125 0 1 1 125.625 0 62.8125 62.8125 0 1 1-125.625 0ZM445.90625-37.03125c47.15625 0.09375 85.59375 38.4375 85.59375 85.59375 0 47.25-38.4375 85.59375-85.59375 85.59375-47.25 0-85.59375-38.4375-85.59375-85.59375-0.09375-47.15625 38.34375-85.59375 85.59375-85.59375z m0 139.125c29.4375 0 53.4375-24 53.53125-53.53125 0-29.53125-24-53.53125-53.53125-53.53125s-53.53125 24-53.53125 53.53125 24 53.53125 53.53125 53.53125z"  horiz-adv-x="1024" />

    
    <glyph glyph-name="Products" unicode="&#59376;" d="M851.84375 750.46875c-15.5625 0-28.125-12.5625-28.125-28.125v-577.59375H198.3125V722.34375c0 15.5625-12.5625 28.125-28.125 28.125s-28.125-12.5625-28.125-28.125v-722.90625c0-15.5625 12.5625-28.125 28.125-28.125s28.125 12.5625 28.125 28.125v89.0625h625.40625v-89.0625c0-15.5625 12.5625-28.125 28.125-28.125s28.125 12.5625 28.125 28.125V722.34375c0 15.46875-12.65625 28.125-28.125 28.125zM521.84375 680.4375L381.6875 598.21875l139.6875-50.90625L625.4375 608.0625zM512 234.09375l130.96875-58.875L782 237.75V398.0625l-120.9375 54.375V627.09375L522.03125 689.625l-139.03125-62.53125v-167.34375l-1.96875 0.9375L242 398.15625V237.75l138.9375-62.4375L512 234.09375z m-22.03125 22.96875l-94.03125-42.28125V315.5625l94.03125 42.28125v-100.78125z m138-42.28125l-94.03125 42.28125V361.03125l94.03125-42.28125v-103.96875zM752 257.0625l-94.03125-42.28125V318.75L752 361.03125v-103.96875z m-18.09375 129.84375l-90.9375-40.875-90.9375 40.875 90.9375 40.875 90.9375-40.875zM631.0625 461.625l-94.03125-42.28125V548.34375L631.0625 590.625v-129zM521.9375 656.71875l90.28125-40.59375-90.28125-40.59375-90.28125 40.59375 90.28125 40.59375z m-109.03125-66.1875l94.03125-42.28125v-129l-94.03125 42.28125V590.53125z m-46.96875-375.75l-94.03125 42.28125V357.84375L365.9375 315.5625v-100.78125z m-79.5 170.4375l94.5 42.46875L475.4375 385.21875 380.9375 342.75l-94.5 42.46875z"  horiz-adv-x="1024" />

    
    <glyph glyph-name="zip" unicode="&#59150;" d="M339.6 207.10000000000002h109.9v-54.9H339.6zM845.3 606.5L673.9 777.9c-11.4 11.4-26.7 17.7-42.8 17.7H221.5c-33.4 0-60.6-27.2-60.6-60.6v-702c0-33.4 27.2-60.6 60.6-60.6h581c33.4 0 60.6 27.2 60.6 60.6V563.6c0 16.2-6.3 31.4-17.8 42.9z m-368.4 40.1h-82.4v-54.9h82.4v-54.9h-82.4v-54.9h82.4V427h-82.4v-54.9h82.4v-247.2c0-15.2-12.3-27.5-27.5-27.5H339.6c-15.2 0-27.5 12.3-27.5 27.5V317h82.4v54.9h-82.4v54.9h82.4v54.9h-82.4v54.9h82.4v54.9h-82.4v54.9h82.4v54.9h82.4v-54.7z"  horiz-adv-x="1024" />

    
    <glyph glyph-name="xlsx" unicode="&#59151;" d="M845.3 606.5L673.9 777.9c-11.4 11.4-26.7 17.7-42.8 17.7H221.5c-33.4 0-60.6-27.2-60.6-60.6v-702c0-33.4 27.2-60.6 60.6-60.6h581c33.4 0 60.6 27.2 60.6 60.6V563.6c0 16.2-6.3 31.4-17.8 42.9zM308 278.5l-33.3 54.1-33.3-54.1h-58.1l58.1 87.8-52.8 80.7H246l29.8-51.8 29 51.8h56.8l-52.4-81.6 57.4-86.9H308z m196.7 0H371.4V446.9h52v-127h81.2v-41.4z m121.7 4.2c-10.7-4.7-24.3-7.1-40.5-7.1-28.7 0-48.5 5.5-59.5 16.5s-17.3 25.1-18.7 42.1l49.5 3.1c1.1-8 3.2-14.2 6.5-18.4 5.4-6.8 13-10.2 23-10.2 7.4 0 13.2 1.7 17.2 5.2s6 7.5 6 12.1c0 4.4-1.9 8.3-5.7 11.7-3.8 3.4-12.7 6.7-26.7 9.8-22.8 5.1-39.1 11.9-48.8 20.4-9.8 8.5-14.7 19.4-14.7 32.5 0 8.7 2.5 16.8 7.5 24.5 5 7.7 12.5 13.7 22.6 18.2 10.1 4.4 23.9 6.6 41.4 6.6 21.5 0 37.9-4 49.2-12 11.3-8 18-20.7 20.2-38.2l-49-2.9c-1.3 7.6-4.1 13.1-8.2 16.6s-9.9 5.2-17.3 5.2c-6 0-10.6-1.3-13.7-3.9-3.1-2.6-4.6-5.7-4.6-9.4 0-2.7 1.3-5.1 3.8-7.2 2.4-2.2 8.3-4.3 17.5-6.2 22.7-4.9 39-9.9 48.9-14.9 9.8-5 17-11.2 21.5-18.7 4.5-7.4 6.7-15.7 6.7-24.9 0-10.8-3-20.8-9-29.9-6.1-9-14.4-15.9-25.1-20.6z m156.3-4.2l-33.3 54.1-33.3-54.1H658l58.1 87.8-52.8 80.7h57.3l29.8-51.8 29 51.8h56.8l-52.4-81.6 57.4-86.9h-58.5z"  horiz-adv-x="1024" />

    
    <glyph glyph-name="ppt" unicode="&#59153;" d="M845.3 606.5L673.9 777.9c-11.4 11.4-26.7 17.7-42.8 17.7H221.5c-33.4 0-60.6-27.2-60.6-60.6v-702c0-33.4 27.2-60.6 60.6-60.6h581c33.4 0 60.6 27.2 60.6 60.6V563.6c0 16.2-6.3 31.4-17.8 42.9zM401.6 391.7c-4.7-8.8-10.6-15.7-17.9-20.8-7.2-5-14.6-8.3-22-10-10.2-2-24.9-3-44.1-3h-27.7v-79.4h-42.5V489.1h68.2c25.9 0 42.7-1.1 50.6-3.2 12.1-3.2 22.2-10 30.3-20.6 8.1-10.6 12.2-24.3 12.2-41 0-12.9-2.4-23.8-7.1-32.6z m196.2 0c-4.7-8.8-10.6-15.7-17.9-20.8-7.2-5-14.6-8.3-22-10-10.2-2-24.9-3-44.1-3h-27.7v-79.4h-42.5V489.1h68.2c25.9 0 42.7-1.1 50.6-3.2 12.1-3.2 22.2-10 30.3-20.6 8.1-10.6 12.2-24.3 12.2-41 0-12.9-2.4-23.8-7.1-32.6zM792 453.4h-62.4v-174.9h-42.5V453.4h-62.5V489H792v-35.6zM537.2 452c-5.1 1-15.3 1.4-30.6 1.4h-20.5v-59.8h23.3c16.8 0 28 1.1 33.6 3.3 5.7 2.2 10.1 5.6 13.3 10.3 3.2 4.7 4.8 10.1 4.8 16.4 0 7.7-2.2 14-6.7 19-4.6 5-10.3 8.2-17.2 9.4zM341 452c-5.1 1-15.3 1.4-30.6 1.4h-20.5v-59.8h23.3c16.8 0 28 1.1 33.6 3.3 5.7 2.2 10.1 5.6 13.3 10.3 3.2 4.7 4.8 10.1 4.8 16.4 0 7.7-2.2 14-6.7 19-4.6 5-10.3 8.2-17.2 9.4z"  horiz-adv-x="1024" />

    
    <glyph glyph-name="img" unicode="&#59154;" d="M845.3 606.5L673.9 777.9c-11.4 11.4-26.7 17.7-42.8 17.7H221.5c-33.4 0-60.6-27.2-60.6-60.6v-702c0-33.4 27.2-60.6 60.6-60.6h581c33.4 0 60.6 27.2 60.6 60.6V563.6c0 16.2-6.3 31.4-17.8 42.9z m-7.7-363.9c-12.9-11.2-32.4-9.9-43.7 3.1L687.7 367.9 473.8 153.70000000000005c-6.1-6.1-14.9-9.4-23-9.1a30.9 30.9 0 0 0-22.3 10.7L351.1 209 226.8 75.89999999999998c-5.8-5-13-7.5-20.1-7.5-8.7 0-17.4 3.7-23.5 10.8-11.1 13-9.6 32.5 3.4 43.7l147.7 153.2c12.9 11.1 32.4 9.7 43.6-3.3l75.7-51.8 213.8 214.1c6.1 6.1 14.1 9.3 23 9.1 8.6-0.3 16.7-4.2 22.3-10.6l128-147.3c11.2-13 9.8-32.5-3.1-43.7zM464.1 519.8c0-34.9-28.3-63.2-63.2-63.2s-63.2 28.3-63.2 63.2S366 583 400.9 583s63.2-28.3 63.2-63.2z"  horiz-adv-x="1024" />

    
    <glyph glyph-name="doc" unicode="&#59155;" d="M336.3 432.9c-4.9 4.6-11.1 7.8-18.6 9.4-5.6 1.3-16.7 1.9-33.1 1.9h-18.1v-132.1h30.1c11.2 0 19.4 0.6 24.4 1.9 6.5 1.6 11.9 4.4 16.3 8.3 4.3 3.9 7.8 10.3 10.5 19.3 2.7 8.9 4.1 21.1 4.1 36.5s-1.4 27.3-4.1 35.5-6.6 14.7-11.5 19.3zM845.3 606.5L673.9 777.9c-11.4 11.4-26.7 17.7-42.8 17.7H221.5c-33.4 0-60.6-27.2-60.6-60.6v-702c0-33.4 27.2-60.6 60.6-60.6h581c33.4 0 60.6 27.2 60.6 60.6V563.6c0 16.2-6.3 31.4-17.8 42.9zM387.4 333.9c-5-14.5-12.1-26.3-21.3-35.2-7-6.8-16.4-12.1-28.3-15.9-8.9-2.8-20.8-4.2-35.7-4.2h-75.8V478h73.6c16.6 0 29.3-1.3 38-3.8 11.7-3.4 21.7-9.6 30.1-18.4 8.3-8.8 14.7-19.6 19.1-32.3 4.4-12.8 6.5-28.5 6.5-47.2-0.1-16.4-2.2-30.5-6.2-42.4z m199.3-31.5c-17.5-18.2-40.9-27.3-70.2-27.3-29.7 0-53.2 9.1-70.8 27.1-17.5 18.1-26.3 43-26.3 74.8 0 20.3 3.1 37.4 9.1 51.2 4.5 10.2 10.7 19.3 18.6 27.4 7.9 8.1 16.4 14.1 25.8 18 12.4 5.3 26.8 7.9 43 7.9 29.4 0 52.9-9.1 70.5-27.4 17.7-18.2 26.5-43.6 26.5-76.1 0.1-32.2-8.7-57.4-26.2-75.6z m194.5-11.5c-13.9-10.6-31.6-15.9-53-15.9-26.5 0-48.3 9.1-65.3 27.1-17.1 18.1-25.6 42.8-25.6 74.2 0 33.2 8.6 59 25.7 77.3 17.1 18.4 39.7 27.6 67.6 27.6 24.4 0 44.2-7.2 59.4-21.6 9.1-8.5 15.9-20.8 20.4-36.7l-39.9-9.5c-2.4 10.3-7.3 18.5-14.8 24.5-7.5 6-16.6 9-27.3 9-14.8 0-26.8-5.3-36-15.9-9.2-10.6-13.8-27.8-13.8-51.6 0-25.2 4.5-43.2 13.6-53.9 9.1-10.7 20.9-16.1 35.4-16.1 10.7 0 19.9 3.4 27.6 10.2 7.7 6.8 13.2 17.5 16.6 32.1l39-12.4c-5.7-21.6-15.6-37.8-29.6-48.4zM516.3 446.9c-16.6 0-30-5.7-40.1-17.1S461 401.3 461 378.4c0-22.6 5.2-39.7 15.6-51.4 10.4-11.7 23.7-17.5 39.7-17.5 16.1 0 29.2 5.8 39.6 17.4 10.3 11.6 15.4 28.9 15.4 52 0 22.9-5 39.9-15 51.2-10 11.2-23.3 16.8-40 16.8z"  horiz-adv-x="1024" />

    
    <glyph glyph-name="pdf" unicode="&#59156;" d="M539.8 441.5c-5.2 4.9-11.7 8.2-19.7 9.9-5.9 1.3-17.6 2-34.9 2h-19.1V314h31.8c11.9 0 20.4 0.7 25.7 2 6.9 1.7 12.6 4.6 17.2 8.8 4.5 4.1 8.3 10.9 11.1 20.3 2.9 9.4 4.3 22.3 4.3 38.6s-1.4 28.8-4.3 37.5c-2.9 8.6-6.9 15.4-12.1 20.3zM845.3 606.5L673.9 777.9c-11.4 11.4-26.7 17.7-42.8 17.7H221.5c-33.4 0-60.6-27.2-60.6-60.6v-702c0-33.4 27.2-60.6 60.6-60.6h581c33.4 0 60.6 27.2 60.6 60.6V563.6c0 16.2-6.3 31.4-17.8 42.9zM381.8 391.7c-4.7-8.8-10.6-15.7-17.9-20.8-7.2-5-14.6-8.3-22-10-10.2-2-24.9-3-44.1-3H270v-79.4h-42.5V489.1h68.2c25.9 0 42.7-1.1 50.6-3.2 12.1-3.2 22.2-10 30.3-20.6 8.1-10.6 12.2-24.3 12.2-41 0-12.9-2.3-23.8-7-32.6z m211.9-54.8c-5.3-15.3-12.8-27.7-22.6-37.2-7.4-7.2-17.3-12.8-29.9-16.8-9.4-3-21.9-4.4-37.6-4.4h-80V489.1h77.7c17.5 0 30.9-1.3 40.1-4 12.3-3.6 22.9-10.1 31.8-19.4 8.8-9.3 15.5-20.7 20.1-34.1 4.6-13.5 6.9-30 6.9-49.8-0.1-17.4-2.2-32.3-6.5-44.9z m187.1 116.5H679v-49.8h87.9V368H679v-89.5h-42.5V489.1h144.4v-35.7zM321.2 452c-5.1 1-15.3 1.4-30.6 1.4H270v-59.8h23.3c16.8 0 28 1.1 33.6 3.3 5.7 2.2 10.1 5.6 13.3 10.3 3.2 4.7 4.8 10.1 4.8 16.4 0 7.7-2.2 14-6.7 19s-10.2 8.2-17.1 9.4z"  horiz-adv-x="1024" />

    
    <glyph glyph-name="Success" unicode="&#59221;" d="M359 249.60000000000002H223.7c-12.4 0-22.6 10.1-22.6 22.6 0 12.4 10.1 22.6 22.6 22.6H359c12.4 0 22.6-10.1 22.6-22.6 0-12.5-10.2-22.6-22.6-22.6zM422 406H223.7c-12.4 0-22.6 10.1-22.6 22.6 0 12.4 10.1 22.6 22.6 22.6H422c12.4 0 22.6-10.1 22.6-22.6 0-12.5-10.2-22.6-22.6-22.6zM685.4 562.4H223.7c-12.4 0-22.6 10.1-22.6 22.6 0 12.4 10.1 22.6 22.6 22.6h461.7c12.4 0 22.6-10.1 22.6-22.6-0.1-12.5-10.2-22.6-22.6-22.6zM419.9 84.79999999999995H153.5c-11 0-19.9 8.9-19.9 19.9V705.2c0 11 8.9 19.9 19.9 19.9H754c11 0 19.9-8.9 19.9-19.9v-149.5c0-11 9-20 20-20s20 9 20 20V705.2c0 33.1-26.8 59.9-59.9 59.9H153.5c-33.1 0-59.9-26.8-59.9-59.9v-600.5c0-33.1 26.8-59.9 59.9-59.9h266.4c11 0 20 9 20 20 0 11.1-8.9 20-20 20zM686.5 2.7999999999999545c-134.5 0-243.9 109.4-243.9 243.9s109.4 244 243.9 244 243.9-109.4 243.9-243.9-109.4-244-243.9-244z m0 449.3c-113.2 0-205.3-92.1-205.3-205.3 0-113.2 92.1-205.3 205.3-205.3 113.2 0 205.3 92.1 205.3 205.3 0 113.2-92.1 205.3-205.3 205.3zM642.7 136.70000000000005c-6.1 0-12.2 2.3-16.9 7l-75.5 75.5c-9.3 9.3-9.3 24.5 0 33.8 9.3 9.3 24.5 9.3 33.8 0l58.6-58.6L782 333.70000000000005c9.3 9.3 24.5 9.3 33.8 0 9.3-9.3 9.3-24.5 0-33.8L659.6 143.70000000000005c-4.6-4.6-10.8-7-16.9-7z"  horiz-adv-x="1024" />

    
    <glyph glyph-name="Error" unicode="&#59222;" d="M359 249.60000000000002H223.7c-12.4 0-22.6 10.1-22.6 22.6 0 12.4 10.1 22.6 22.6 22.6H359c12.4 0 22.6-10.1 22.6-22.6 0-12.5-10.2-22.6-22.6-22.6zM422 406H223.7c-12.4 0-22.6 10.1-22.6 22.6 0 12.4 10.1 22.6 22.6 22.6H422c12.4 0 22.6-10.1 22.6-22.6 0-12.5-10.2-22.6-22.6-22.6zM685.4 562.4H223.7c-12.4 0-22.6 10.1-22.6 22.6 0 12.4 10.1 22.6 22.6 22.6h461.7c12.4 0 22.6-10.1 22.6-22.6-0.1-12.5-10.2-22.6-22.6-22.6zM419.9 84.79999999999995H153.5c-11 0-19.9 8.9-19.9 19.9V705.2c0 11 8.9 19.9 19.9 19.9H754c11 0 19.9-8.9 19.9-19.9v-149.5c0-11 9-20 20-20s20 9 20 20V705.2c0 33.1-26.8 59.9-59.9 59.9H153.5c-33.1 0-59.9-26.8-59.9-59.9v-600.5c0-33.1 26.8-59.9 59.9-59.9h266.4c11 0 20 9 20 20 0 11.1-8.9 20-20 20zM686.5 2.7999999999999545c-134.5 0-243.9 109.4-243.9 243.9s109.4 244 243.9 244 243.9-109.4 243.9-243.9-109.4-244-243.9-244z m0 449.3c-113.2 0-205.3-92.1-205.3-205.3 0-113.2 92.1-205.3 205.3-205.3 113.2 0 205.3 92.1 205.3 205.3 0 113.2-92.1 205.3-205.3 205.3zM728.4 242.20000000000005l64 63.9c10.1 10.1 10.1 26.4 0 36.5s-26.4 10.1-36.5 0l-64-64-64 64c-10.1 10.1-26.4 10.1-36.5 0s-10.1-26.4 0-36.5l64-63.9-64-63.9c-10.1-10.1-10.1-26.4 0-36.5 10.1-10.1 26.4-10.1 36.5 0l64 64 64-64c10.1-10.1 26.4-10.1 36.5 0 10.1 10.1 10 26.4 0 36.5l-64 63.9z"  horiz-adv-x="1024" />

    
    <glyph glyph-name="Padding" unicode="&#59223;" d="M390.9 240.79999999999995H235.6c-12.4 0-22.6 10.1-22.6 22.6 0 12.4 10.1 22.6 22.6 22.6h155.3c12.4 0 22.6-10.1 22.6-22.6 0-12.5-10.2-22.6-22.6-22.6zM343.9 397.2H235.6c-12.4 0-22.6 10.1-22.6 22.6 0 12.4 10.1 22.6 22.6 22.6h108.3c12.4 0 22.6-10.1 22.6-22.6 0-12.5-10.2-22.6-22.6-22.6zM697.3 553.5H235.6c-12.4 0-22.6 10.1-22.6 22.6 0 12.4 10.1 22.6 22.6 22.6h461.7c12.4 0 22.6-10.1 22.6-22.6-0.1-12.4-10.2-22.6-22.6-22.6zM391.8 76H165.4c-11 0-19.9 8.9-19.9 19.9V696.4c0 11 8.9 19.9 19.9 19.9h600.5c11 0 19.9-8.9 19.9-19.9V551c0-11 9-20 20-20s20 9 20 20V696.4c0 33.1-26.8 59.9-59.9 59.9H165.4c-33.1 0-59.9-26.8-59.9-59.9V96c0-33.1 26.8-59.9 59.9-59.9h226.4c11 0 20 9 20 20s-8.9 19.9-20 19.9zM875.1 53.200000000000045h-29.5v33.5c0 63-29.2 118.8-78.3 149.3 49 30.5 78.3 86.4 78.3 149.7v45.2h29.5c12.2 0 23.1 8.7 25.1 20.7 2.7 15.3-9.6 28.1-25.1 28.1H485.7c-12.2 0-23.1-8.7-25.1-20.7-2.7-15.3 9.6-28.1 25.1-28.1h29.5v-45.3c0-30.8 7.5-61 21.8-87.3 14-25.8 34.1-47.3 58.4-62.4-50.3-31.2-80.1-87-80.1-149.3v-33.5h-29.5c-12.2 0-23.1-8.7-25.1-20.7-2.7-15.3 9.6-28.1 25.1-28.1h389.4c15.5 0 27.7 12.7 25.1 28.1-2.1 12.1-12.9 20.8-25.2 20.8z m-229.3 163c2.4 0.5 4.6 1.5 6.8 3l0.1 0.1c0.1 0.1 0.3 0.3 0.6 0.5 0.3 0.3 0.6 0.5 1 0.9l0.6 0.5c0.2 0.1 0.3 0.3 0.4 0.4l0.2 0.2c0.1 0.2 0.3 0.3 0.4 0.5l0.1 0.1c0.1 0.1 0.2 0.2 0.3 0.4 0 0.1 0.1 0.1 0.1 0.2l0.6 0.9 0.1 0.2c0.3 0.4 0.6 0.9 0.9 1.3 0.1 0.1 0.1 0.2 0.1 0.2 0.1 0.1 0.1 0.2 0.2 0.3 0 0.1 0.1 0.1 0.1 0.2l0.3 0.6v0.3l0.3 0.6 0.1 0.1v0.1c1.7 4.1 2 8.6 1 12.8-1.1 4.1-3.2 7.7-6.2 10.4l-0.2 0.2-0.2 0.2-0.2 0.2c-0.1 0-0.1 0.1-0.2 0.1-0.1 0.1-0.2 0.1-0.2 0.1l-0.1 0.1c-1.9 1.5-4.2 2.7-6.6 3.3-54.6 14.3-89.9 65.5-89.9 130.3v45.2H804v-45.3c0-64.7-35.4-115.9-90.2-130.4-9.2-2.4-15.4-11.7-14.4-21.5v-0.5c0-0.1 0-0.3 0.1-0.4v-0.2c0-0.2 0.1-0.4 0.1-0.7v-0.2c0-0.2 0.1-0.4 0.1-0.7 0-0.1 0.1-0.3 0.1-0.4 0-0.2 0.1-0.3 0.1-0.5l0.1-0.2c0-0.2 0.1-0.5 0.2-0.7l0.1-0.1c0-0.1 0.1-0.2 0.1-0.3 0.1-0.2 0.1-0.3 0.2-0.4l0.2-0.3v-0.1c0.1-0.1 0.1-0.2 0.2-0.4 0.5-1.2 1.2-2.2 1.9-3.2 0.1-0.2 0.3-0.4 0.4-0.5 0.1-0.2 0.2-0.3 0.3-0.4l0.1-0.1c0.1-0.1 0.1-0.2 0.2-0.2l0.1-0.1 0.1-0.1c0.1-0.1 0.1-0.1 0.1-0.2l0.1-0.2 0.1-0.1c0.1-0.1 0.1-0.2 0.3-0.3 1.8-1.8 4-3.3 6.2-4.3 0.1 0 0.2-0.1 0.2-0.1l0.3-0.1c0.1 0 0.2-0.1 0.3-0.1l0.5-0.2H712.5l0.2-0.1c0.2-0.1 0.5-0.2 0.7-0.2C768.7 202 804 151.10000000000002 804 86.60000000000002v-33.5H556.5v33.5c0 64.2 35 115 89.3 129.6z m58.7 7.4zM739.7 90H621.2c-16.6 0-30 13.4-30 30s13.4 30 30 30h118.5c16.6 0 30-13.4 30-30s-13.5-30-30-30z"  horiz-adv-x="1024" />

    
    <glyph glyph-name="Adress" unicode="&#59238;" d="M331.1 224.60000000000002H189.8c-11.3 0-20.5-9.2-20.5-20.5s9.2-20.5 20.5-20.5h141.4c11.3 0 20.5 9.2 20.5 20.5-0.1 11.3-9.3 20.5-20.6 20.5zM402.1 111.70000000000005H189.8c-11.3 0-20.5-9.2-20.5-20.5s9.2-20.5 20.5-20.5h212.4c11.3 0 20.5 9.2 20.5 20.5-0.1 11.3-9.3 20.5-20.6 20.5zM189.8 337.4c-11.3 0-20.5-9.2-20.5-20.5s9.2-20.5 20.5-20.5h74.1c11.4 0 20.8 9.4 20.8 20.8 0 11.1-9 20.2-20.2 20.2h-74.7zM231.5 534.4H122.4c-10 0-18.1-8.1-18.1-18.1v-516.6c0-10 8.1-18.1 18.1-18.1h631.1c2.5 0 4.9 0.5 7 1.4 6.5 2.7 11.1 9.2 11.1 16.7v69.6c0 10 8.1 18.2 18.2 18.2 10 0 18.2-8.1 18.2-18.2v-69.6c0-30.1-24.4-54.4-54.4-54.4H122.4c-30.1 0-54.4 24.4-54.4 54.4V516.3c0 30.1 24.4 54.4 54.4 54.4h109.1c10 0 18.2-8.1 18.2-18.2 0-10-8.1-18.1-18.2-18.1zM743.3 500.4c0.1 63.9-53.6 116.4-119.7 116.9-66.4 0-120.5-51.8-121.2-115.5-0.8-64.1 52.2-117.2 118.3-118.3l0.2-12v12c66.5 0 121.5 52.5 122.4 116.9z m-202.8-0.3c-0.1 43.2 35.8 78.6 80 78.9h1.4c21 0 40.8-8 55.9-22.6 15.2-14.6 23.8-35.2 23.6-56.3-0.1-43.2-36.1-78.4-80.4-78.4-44.2 0-80.3 35.2-80.5 78.4zM621.9 567v-0.2zM620.6 822.7C437.5 822.7 287.1 678 285.2 500c1.1-67.7 25.2-134.4 67.7-187.5l1.3-2c3.8-4.6 65.2-69.2 119.3-126.2 69.6-73.2 118.2-124.9 140.6-148.8 7.5-8 20.1-7.9 27.5 0.2 50.7 55.7 226.7 249.6 256.7 290.7 36.8 50.9 56.7 111 57.6 173.8C954.1 678 803.7 822.7 620.6 822.7zM856.4 340c-7-10.1-14.8-20.3-23.1-29.9L629.9 75.89999999999998 406.7 315.70000000000005c-1.3 1.5-27.7 31.3-37 44.7-29.5 39.5-45.8 88.8-45.6 138.5 0.4 76.4 32.3 150.5 87.4 203.4 56.1 53.8 129.8 83.5 207.5 83.5h1.6c79.3 0 153-29.6 209-83.5 55.1-52.9 86.9-127 87.3-203.4 0.1-66.6-32.3-119.9-60.5-158.9z"  horiz-adv-x="1024" />

    
    <glyph glyph-name="Juslink-b" unicode="&#59218;" d="M536.565657 225.28a110.26101 110.26101 0 0 1 81.144242 34.598788v-34.75394l80.885657 0.310304V579.335758h-80.885657v-208.47192a64.749899 64.749899 0 0 0-129.292929 0V579.335758H407.634747v-222.694142c0-71.576566 44.993939-131.361616 128.93091-131.361616M275.807677 690.320808v-325.818182a58.285253 58.285253 0 0 0-58.285253-58.285252H135.343838v-80.885657h91.901415a129.292929 129.292929 0 0 1 129.292929 129.292929V727.970909zM891.035152 434.113939c-56.268283 15.049697-69.818182 27.203232-69.663031 46.545455s18.669899 34.547071 40.339394 36.20202a86.67798 86.67798 0 0 0 81.351111-36.822626l67.232323 30.616566c-42.563232 70.076768-118.12202 87.505455-178.837979 74.007272-56.578586-12.515556-92.004848-53.113535-92.418586-103.434343-0.672323-80.575354 78.454949-99.607273 128.72404-112.381414 52.441212-13.291313 64.025859-27.358384 63.81899-47.114344s-18.980202-31.030303-36.20202-33.409293c-28.134141-3.775354-71.731717 5.637172-90.815354 38.425859L732.52202 296.080808c29.530505-56.164848 89.884444-81.402828 145.635556-81.402828a175.838384 175.838384 0 0 1 37.236363 3.827071c58.130101 12.61899 94.694141 52.492929 95.469899 104.003232 1.189495 77.937778-68.473535 97.900606-119.725252 111.605656M1479.886869 578.19798a110.26101 110.26101 0 0 1-81.144243-34.495354v34.702222l-80.885656-37.28808v-316.095354h80.885656V432.614141a64.749899 64.749899 0 0 0 129.29293 0v-207.54101h80.782222V446.836364c0 71.576566-45.149091 131.361616-129.29293 131.361616M1267.070707 382.500202V518.464646l-80.885656-37.753535v-229.727677a25.496566 25.496566 0 0 0-50.941415 0V728.901818l-80.885656-37.650101v-440.268283a106.330505 106.330505 0 0 1 212.66101 0zM1273.793939 587.351919a47.372929 47.372929 0 1 0-47.372929 47.372929 47.372929 47.372929 0 0 0 47.372929-47.372929M2480.769293 594.592323c-34.236768 142.325657-334.144646 190.16404-723.781818 124.121212v-6.412929c385.137778 55.647677 592.058182 14.946263 661.979798-91.901414 83.316364-126.810505-301.769697-369.312323-759.259798-494.364445s-859.177374-106.433939-897.344647 41.373738a104.158384 104.158384 0 0 0 2.689293 57.612929h-10.343434a125.879596 125.879596 0 0 1-4.809697-71.990303c39.925657-166.115556 459.817374-201.69697 937.890909-80.006465S2520.694949 428.476768 2480.769293 594.592323zM1952.219798 225.073131l-155.61697 196.421818 151.686465 157.013334h-99.245253l-106.899394-110.778182V737.331717l-80.833939-37.494949v-474.763637h80.833939v150.031515l119.05293-150.031515h91.022222z"  horiz-adv-x="2585" />

    
    <glyph glyph-name="NoUp" unicode="&#59324;" d="M370.9 240.79999999999995H235.6c-12.4 0-22.6 10.1-22.6 22.6 0 12.4 10.1 22.6 22.6 22.6h135.3c12.4 0 22.6-10.1 22.6-22.6 0-12.5-10.2-22.6-22.6-22.6zM433.9 397.2H235.6c-12.4 0-22.6 10.1-22.6 22.6 0 12.4 10.1 22.6 22.6 22.6h198.3c12.4 0 22.6-10.1 22.6-22.6 0-12.5-10.2-22.6-22.6-22.6zM794.7 264.79999999999995H607.4c-16.6 0-30.1-13.5-30.1-30.1s13.5-30.1 30.1-30.1h187.3c16.6 0 30.1 13.5 30.1 30.1s-13.5 30.1-30.1 30.1zM697.3 553.5H235.6c-12.4 0-22.6 10.1-22.6 22.6 0 12.4 10.1 22.6 22.6 22.6h461.7c12.4 0 22.6-10.1 22.6-22.6-0.1-12.4-10.2-22.6-22.6-22.6zM431.8 76H165.4c-11 0-19.9 8.9-19.9 19.9V696.4c0 11 8.9 19.9 19.9 19.9h600.5c11 0 19.9-8.9 19.9-19.9V547c0-11 9-20 20-20s20 9 20 20V696.4c0 33.1-26.8 59.9-59.9 59.9H165.4c-33.1 0-59.9-26.8-59.9-59.9V96c0-33.1 26.8-59.9 59.9-59.9h266.4c11 0 20 9 20 20s-8.9 19.9-20 19.9zM698.4-6c-134.5 0-243.9 109.4-243.9 243.9s109.4 243.9 243.9 243.9 243.9-109.4 243.9-243.9S832.9-6 698.4-6z m0 449.3c-113.2 0-205.3-92.1-205.3-205.3 0-113.2 92.1-205.3 205.3-205.3 113.2 0 205.3 92.1 205.3 205.3 0 113.2-92.1 205.3-205.3 205.3z"  horiz-adv-x="1024" />

    
    <glyph glyph-name="Co2" unicode="&#59265;" d="M498.4 56.89999999999998L473 92.70000000000005c11.1 16.5 21.4 33.1 30.8 49.8 3.7-21.1 8.7-42.4 13.5-64.5l-18.9-21.1z m-46.9 48.5c-13.7 41.2-28.2 81.8-44.3 122.1-82.8-40.7-184-27.6-260 20.9 88.3-16.6 168.6-27.8 259-18.2-22.9 56.2-47 112.4-75.1 166.2-77.4-22.5-146.1-3.3-198.6 59.9 29.9-13.4 57.2-31.3 88.9-40.7 35.7-10.7 69.8-10.8 106.5-13.4C269.2 511.4 199.2 606.8 126 705.8c62.9-61.9 120.5-126.5 167.9-201.6 9.2 54.4 4.6 103.6 6.7 158.3 31.2-53.8 33.1-113.7-2.8-164.8 38.9-65.1 75.7-132.5 101.4-204.3 29 28.1 77.2 71.6 87.1 113.4 1.2 3 1.7 4.2 2.1 4.8 5.4 13.1 10.3 22.2 10.3 22.2 3-63.9-36.3-125.5-97.9-144.7 21.2-59.8 41.4-120.5 50.7-183.7z m100.1-25.1c19.6 17.2 38.6 34.8 57.1 53.2-41.9 36.2-58.4 95.2-49.4 148.6 11.6-52.7 24.2-99.7 50.7-147.4 25.7 25.8 51.1 52.3 74.2 80.5-30.6 37.5-36.1 80-13.5 123.8-0.4-19.7-3.9-39-1.6-58.7 2.5-22.2 10.4-41.1 17.6-62 46.6 58 83 119.1 120.5 182.7-19.5-49.3-41.6-96.3-72.1-140.1 32.2 7.7 58.3 21.8 89.1 33.4-22.4-29.8-55.1-45-91.8-37.1-26.8-36.8-55.5-72.9-89.2-104 22.4-9.4 57.7-25.9 83.1-21.5 1.9 0.1 2.7 0 3.2 0 8.5 0.1 14.7-0.5 14.7-0.5-34.6-16.7-77.9-9.4-102.9 20.2-28.2-25.7-56.9-51.2-89.7-71.1zM817.9 468c-85-84.5-182-55.6-258.2-129.9-0.5 50-12.8 101.9-40.3 156.5-85.9 171-233.6 236.1-453 261.9 78-192.4-48.4-325.9 57-504.8C204.7 113.5 321 104.89999999999998 448.1 83.10000000000002l32.1-66.9c2.1-4.4 7.2-5.9 11.3-3.4l19.3 11.7c4.1 2.5 5.2 7.8 2.4 11.7l-1.4 1.8 17 27.3c92.6-21 176.1-12.5 244.7 67.8 78.9 92.4 81.6 196.8 44.4 334.9zM598.5 496.4c18.8 0 34.4 4.7 46.7 14 12.3 9.3 21 23.5 26.3 42.7L637.1 564c-3-12.9-7.8-22.3-14.6-28.3s-14.9-9-24.3-9c-12.8 0-23.2 4.7-31.1 14.1s-12 25.2-12 47.4c0 20.9 4.1 36.1 12.2 45.4 8.1 9.3 18.7 14 31.7 14 9.4 0 17.4-2.6 24-7.9 6.6-5.3 10.9-12.5 13-21.6l35.1 8.4c-4 14.1-10 24.8-18 32.3-13.4 12.7-30.9 19-52.4 19-24.6 0-44.4-8.1-59.5-24.3s-22.6-38.9-22.6-68.1c0-27.6 7.5-49.4 22.5-65.4 14.9-15.6 34.1-23.6 57.4-23.6z m181.6 0c25.8 0 46.4 8 61.8 24S865 558.6 865 587c0 28.6-7.8 50.9-23.3 67s-36.2 24-62.1 24c-14.3 0-26.9-2.3-37.9-6.9-8.2-3.4-15.8-8.7-22.7-15.8s-12.4-15.1-16.4-24.1c-5.4-12.1-8-27.2-8-45 0-28 7.7-49.9 23.1-65.8 15.5-16 36.3-24 62.4-24z m-0.1 30.3c-14.1 0-25.8 5.1-35 15.4s-13.8 25.3-13.8 45.2c0 20.2 4.5 35.3 13.4 45.3s20.7 15 35.3 15 26.3-5 35.2-14.9c8.8-9.9 13.2-24.9 13.2-45 0-20.4-4.5-35.6-13.6-45.8-9-10.1-20.6-15.2-34.7-15.2z m177.6-27.3v20.8H913c1.2 2 2.7 4.1 4.6 6.2 1.9 2.1 6.4 6.4 13.5 12.9s12 11.5 14.7 14.9c4.1 5.2 7.1 10.2 9 15 1.9 4.8 2.8 9.8 2.8 15.1 0 9.3-3.3 17-9.9 23.2-6.6 6.2-15.7 9.3-27.2 9.3-10.5 0-19.3-2.7-26.4-8.1-7-5.4-11.2-14.2-12.5-26.6l22.4-2.2c0.4 6.5 2 11.2 4.8 14.1 2.8 2.8 6.5 4.2 11.2 4.2 4.7 0 8.5-1.3 11.1-4 2.7-2.7 4-6.5 4-11.5 0-4.5-1.5-9.1-4.6-13.7-2.3-3.4-8.5-9.7-18.6-19.2-12.6-11.7-21-21-25.2-28.1-4.3-7.1-6.8-14.5-7.7-22.4h78.6z"  horiz-adv-x="1024" />

    
    <glyph glyph-name="Related" unicode="&#59031;" d="M334.3 144.79999999999995h215.3c12.4 0 22.6 10.1 22.6 22.6 0 12.4-10.1 22.6-22.6 22.6H334.3c-12.4 0-22.6-10.1-22.6-22.6 0.1-12.5 10.2-22.6 22.6-22.6zM334.3 255.70000000000005h355.3c12.4 0 22.6 10.1 22.6 22.6 0 12.4-10.1 22.6-22.6 22.6H334.3c-12.4 0-22.6-10.1-22.6-22.6 0.1-12.5 10.2-22.6 22.6-22.6zM334.3 366.6h355.3c12.4 0 22.6 10.1 22.6 22.6 0 12.4-10.1 22.6-22.6 22.6H334.3c-12.4 0-22.6-10.1-22.6-22.6 0.1-12.5 10.2-22.6 22.6-22.6zM334.3 477.5h355.3c12.4 0 22.6 10.1 22.6 22.6 0 12.4-10.1 22.6-22.6 22.6H334.3c-12.4 0-22.6-10.1-22.6-22.6 0.1-12.5 10.2-22.6 22.6-22.6zM836.9 673.9c-1.1 1.6-2.2 3.1-3.5 4.6-1.8 2.2-3.8 4.3-5.9 6.2-3.5 3.2-7.5 6-11.7 8.3-8.5 4.6-18.2 7.2-28.6 7.2h-93.7v22.2c0 2.5-0.3 5-0.8 7.4-3.4 16.8-18.3 29.5-36.1 29.5h-65.9c-10.2 33.8-41.6 58.5-78.7 58.5s-68.5-24.7-78.7-58.5h-65.9c-17.8 0-32.7-12.7-36.1-29.5-0.5-2.4-0.8-4.9-0.8-7.4v-22.2h-93.7c-10.3 0-20.1-2.6-28.6-7.2-4.2-2.3-8.2-5.1-11.7-8.3-2.1-1.9-4.1-4-5.9-6.2-1.2-1.5-2.4-3-3.5-4.6-6.5-9.6-10.2-21.1-10.2-33.5V70c0-33.1 26.8-59.9 59.9-59.9h550.5c33.1 0 59.9 26.8 59.9 59.9V640.4c0 12.4-3.8 24-10.3 33.5z m-466.4 45.5h91.3c5.2 0 9.2 4.6 8.4 9.7 0 0.3-0.1 0.6-0.1 1 0 0.2-0.1 0.4-0.1 0.6 0 0.3-0.1 0.7-0.1 1 0 0.2 0 0.4-0.1 0.6 0 0.3 0 0.7-0.1 1v0.6 1.6c0 8.8 2.7 17 7.3 23.8 7.6 11.1 20.4 18.5 34.9 18.5s27.3-7.3 34.9-18.5c4.6-6.8 7.3-15 7.3-23.8v-2.2c0-0.3 0-0.7-0.1-1 0-0.2 0-0.4-0.1-0.6 0-0.3-0.1-0.7-0.1-1 0-0.2-0.1-0.4-0.1-0.6 0-0.3-0.1-0.6-0.1-1-0.8-5.1 3.3-9.7 8.4-9.7h91.3V643h-283v76.4zM807.2 70c0-11-8.9-19.9-19.9-19.9H236.8c-11 0-19.9 8.9-19.9 19.9V640.4c0 11 8.9 19.9 19.9 19.9h93.7v-20.5c0-2.5 0.3-5 0.8-7.4 3.4-16.8 18.3-29.5 36.1-29.5h289.2c17.8 0 32.7 12.7 36.1 29.5 0.5 2.4 0.8 4.9 0.8 7.4v20.5h93.7c11 0 19.9-8.9 19.9-19.9V70z"  horiz-adv-x="1024" />

    
    <glyph glyph-name="Containers" unicode="&#59041;" d="M782.46875 281.0625c-72.9375 0-132.09375-59.15625-132.09375-132.09375s59.15625-132.09375 132.09375-132.09375 132.09375 59.15625 132.09375 132.09375-59.0625 132.09375-132.09375 132.09375z m40.875-193.21875h-81.75c-10.875 0-19.6875 8.8125-19.6875 19.6875s8.8125 19.6875 19.6875 19.6875h81.75c10.875 0 19.6875-8.8125 19.6875-19.6875s-8.8125-19.6875-19.6875-19.6875z m0 82.78125h-81.75c-10.875 0-19.6875 8.8125-19.6875 19.6875s8.8125 19.6875 19.6875 19.6875h81.75c10.875 0 19.6875-8.8125 19.6875-19.6875s-8.8125-19.6875-19.6875-19.6875zM396.59375 545.625c-2.625-5.4375-20.0625-9.84375-38.90625-9.84375s-30.84375 4.40625-26.71875 9.84375l28.875 38.25c4.125 5.4375 19.21875 9.84375 33.75 9.84375s24.1875-4.40625 21.5625-9.84375l-18.5625-38.25z m147 0c0.65625-5.4375-14.15625-9.84375-33-9.84375s-33.46875 4.40625-32.71875 9.84375l5.71875 38.25c0.84375 5.4375 13.3125 9.84375 27.84375 9.84375s26.90625-4.40625 27.5625-9.84375l4.59375-38.25z m147 0c3.9375-5.4375-8.15625-9.84375-27.09375-9.84375-18.84375 0-36.1875 4.40625-38.625 9.84375l-17.34375 38.25c-2.4375 5.4375 7.3125 9.84375 21.9375 9.84375 14.53125 0 29.53125-4.40625 33.46875-9.84375l27.65625-38.25zM357.78125 207.84375c0-17.25-13.96875-31.125-31.125-31.125-17.25 0-31.125 13.96875-31.125 31.125V379.59375c0 17.25 13.96875 31.125 31.125 31.125 17.25 0 31.125-13.96875 31.125-31.125v-171.75zM544.0625 207.84375c0-17.25-13.96875-31.125-31.125-31.125-17.25 0-31.125 13.96875-31.125 31.125V379.59375c0 17.25 13.96875 31.125 31.125 31.125 17.25 0 31.125-13.96875 31.125-31.125v-171.75zM730.4375 320.34375c0-17.25-13.96875-31.125-31.125-31.125-17.25 0-31.125 13.96875-31.125 31.125v59.25c0 17.25 13.96875 31.125 31.125 31.125 17.25 0 31.125-13.96875 31.125-31.125v-59.25zM887.1875 519l-80.34375 110.90625c-3.46875 5.15625-9.28125 8.15625-15.46875 8.15625H222.59375c-6.1875 0-12-3.09375-15.46875-8.15625L126.78125 519c-4.40625-3.46875-7.3125-8.8125-7.3125-14.8125v-420.84375c0-10.3125 8.4375-18.75 18.75-18.75h458.8125c10.3125 0 18.75 8.4375 18.75 18.75s-8.4375 18.75-18.75 18.75H156.96875V484.125H857v-163.40625c0-10.3125 8.4375-18.75 18.75-18.75s18.75 8.4375 18.75 18.75V504.1875c0 6.09375-2.90625 11.4375-7.3125 14.8125z m-654.65625 88.875h548.90625l57.9375-84.9375H174.59375l57.9375 84.9375z"  horiz-adv-x="1024" />

    
    <glyph glyph-name="Documents" unicode="&#59074;" d="M833.4 528v44.2c0 38-30.1 80.5-70.4 80.5H559.9l-8.4 15.8c-8.4 16-24.8 26-42.9 26H222.1c-36.1 0-65.5-30.2-65.5-67.4V141c0-37.1 29.4-67.3 65.5-67.3h579.8c36.1 0 65.5 30.2 65.5 67.3V467.7c0 22-14.5 45.2-34 60.3zM763 612.2c14 0 30-21.3 30-40v-28c-0.7 0-1.4 0.1-2 0.1H617.3l-36 67.9H763z m64-471.3c0-14.8-11.3-26.9-25.1-26.9H222.1c-13.8 0-25.1 12.1-25.1 26.9V627c0 14.8 11.3 26.9 25.1 26.9h286.5c3 0 5.6-1.6 7.1-4.4l71.5-135c3.5-6.6 10.4-10.8 17.9-10.8h185.8c14.5 0 36.1-21.6 36.1-36.1v-326.7z m0 0M824.4 264.5H296.7l20.9 75h506.8z"  horiz-adv-x="1024" />

    
    <glyph glyph-name="Transport" unicode="&#59097;" d="M885 324.1H701c-11 0-20 9-20 20v90c0 11 9 20 20 20h124c6.7 0 12.9-3.3 16.6-8.9l59.5-89.3c2.4-3.3 3.8-7.4 3.8-11.8 0.1-11-8.9-20-19.9-20z m-164 40h126.6l-33.3 50H721v-50zM729 74c-50.2 0-91 40.8-91 91s40.8 91 91 91 91-40.8 91-91-40.9-91-91-91z m0 142c-28.1 0-51-22.9-51-51s22.9-51 51-51 51 22.9 51 51-22.9 51-51 51zM907.1 355.9l-108.8 150c-12 16.5-31.4 26.4-51.8 26.4H585V156h86.5c-1.1 4.5-1.7 9.3-1.7 14.2 0 9.3 2.2 18 6 25.8H617V492.2h129.6c7.7 0 14.9-3.7 19.4-9.9l105-144.7V196h-90.2c3.8-7.8 6-16.6 6-25.8 0-4.9-0.6-9.6-1.7-14.2h106c11 0 20 9 20 20V344.1c-0.1 4.2-1.5 8.3-4 11.8zM612.9 666.4c-0.8 1.2-1.7 2.4-2.6 3.5-1.4 1.7-2.9 3.3-4.6 4.8-2.7 2.5-5.7 4.6-9 6.4-6.5 3.5-14 5.5-21.9 5.5H503v17c0 1.9-0.2 3.8-0.6 5.7-2.6 12.9-14 22.6-27.7 22.6h-50.5c-7.8 25.9-31.9 44.8-60.3 44.8s-52.5-18.9-60.3-44.8h-50.5c-13.6 0-25-9.7-27.7-22.6-0.4-1.8-0.6-3.7-0.6-5.7v-17H153c-7.9 0-15.4-2-21.9-5.5-3.3-1.8-6.3-3.9-9-6.4-1.6-1.5-3.2-3.1-4.6-4.8-0.9-1.1-1.8-2.3-2.6-3.5-5-7.3-7.8-16.2-7.8-25.7v-437c0-25.4 20.6-47.7 45.9-47.7h71.1c-0.3 3-0.4 6-0.4 9 0 9.9 1.6 19.5 4.6 28.4h-68.2c-8.4 0-15.3 6.8-15.3 15.3v427c0 8.4 6.8 15.3 15.3 15.3H225v-15.7c0-1.9 0.2-3.8 0.6-5.7 2.6-12.9 14-22.6 27.7-22.6h221.6c13.6 0 25 9.7 27.7 22.6 0.4 1.8 0.6 3.7 0.6 5.7V651H568c8.4 0 15.3-6.8 15.3-15.3v-427c0-8.4-6.8-15.3-15.3-15.3H401.3c3-9 4.6-18.5 4.6-28.4 0-3-0.2-6-0.4-9H586c25.4 0 34.9 22.4 34.9 47.7v437c-0.1 9.5-3 18.4-8 25.7z m-146-22.3H261.1v56.2H330.3c3.5 0 6.2 3.1 5.7 6.5 0 0.2-0.1 0.4-0.1 0.6 0 0.1 0 0.3-0.1 0.4 0 0.2 0 0.4-0.1 0.7v0.4 0.7 0.4 1.1c0 5.9 1.8 11.4 4.9 15.9 5.1 7.5 13.7 12.4 23.4 12.4s18.3-4.9 23.4-12.4c3.1-4.5 4.9-10 4.9-15.9v-2.6c0-0.2 0-0.4-0.1-0.7 0-0.1 0-0.3-0.1-0.4 0-0.2-0.1-0.4-0.1-0.6-0.5-3.4 2.2-6.5 5.7-6.5H466.9v-56.2zM401.3 193.5c-12 36.3-46.2 62.6-86.4 62.6s-74.5-26.3-86.4-62.6c-3-9-4.6-18.5-4.6-28.4 0-3 0.2-6 0.4-9 4.5-46 43.4-82 90.6-82s86 36 90.6 82c0.3 3 0.4 6 0.4 9-0.1 9.8-1.7 19.4-4.6 28.4zM314.8 114c-25 0-45.9 18.2-50.2 42-0.5 2.9-0.8 5.9-0.8 9 0 10.5 3.2 20.3 8.7 28.4 9.2 13.6 24.7 22.6 42.3 22.6s33.1-9 42.3-22.6c5.5-8.1 8.7-17.9 8.7-28.4 0-3.1-0.3-6.1-0.8-9-4.2-23.8-25.1-42-50.2-42zM219.7 302.9H505c12.4 0 22.6 10.1 22.6 22.6 0 12.4-10.1 22.6-22.6 22.6H219.7c-12.4 0-22.6-10.1-22.6-22.6 0.1-12.4 10.2-22.6 22.6-22.6zM219.7 411.8H505c12.4 0 22.6 10.1 22.6 22.6 0 12.4-10.1 22.6-22.6 22.6H219.7c-12.4 0-22.6-10.1-22.6-22.6 0.1-12.4 10.2-22.6 22.6-22.6zM219.7 512.7H505c12.4 0 22.6 10.1 22.6 22.6 0 12.4-10.1 22.6-22.6 22.6H219.7c-12.4 0-22.6-10.1-22.6-22.6 0.1-12.4 10.2-22.6 22.6-22.6z"  horiz-adv-x="1024" />

    
    <glyph glyph-name="top" unicode="&#59142;" d="M512 554.2L206.5 248.70000000000005l34.9-34.9L512 484.4l270.6-270.6 34.9 34.9z"  horiz-adv-x="1024" />

    
    <glyph glyph-name="Bottom" unicode="&#59144;" d="M512 213.79999999999995L206.5 519.3l34.9 34.9L512 283.6l270.6 270.6 34.9-34.9z"  horiz-adv-x="1024" />

    
    <glyph glyph-name="Left" unicode="&#59148;" d="M341.8 384l305.5-305.5 34.9 34.9L411.6 384l270.6 270.6-34.9 34.9z"  horiz-adv-x="1024" />

    


  </font>
</defs>
</svg>
