<?xml version="1.0" standalone="no"?><!DOCTYPE svg PUBLIC "-//W3C//DTD SVG 1.1//EN" "http://www.w3.org/Graphics/SVG/1.1/DTD/svg11.dtd"><svg t="1659066056557" class="icon" viewBox="0 0 1024 1024" version="1.1" xmlns="http://www.w3.org/2000/svg" p-id="42217" xmlns:xlink="http://www.w3.org/1999/xlink" width="200" height="200"><defs><style type="text/css">@font-face { font-family: feedback-iconfont; src: url("//at.alicdn.com/t/font_1031158_u69w8yhxdu.woff2?t=1630033759944") format("woff2"), url("//at.alicdn.com/t/font_1031158_u69w8yhxdu.woff?t=1630033759944") format("woff"), url("//at.alicdn.com/t/font_1031158_u69w8yhxdu.ttf?t=1630033759944") format("truetype"); }
</style></defs><path d="M437.4 224h148.2c21.4 0 38.8-17.4 38.8-38.8s-17.4-38.8-38.8-38.8H437.4c-21 0.6-37.6 17.8-37.6 38.8s16.7 38.1 37.6 38.8z" fill="#FFB000" p-id="42218"></path><path d="M758.5 201.3H679c0.2 1.8 0.3 3.6 0.3 5.5v25.8c0 27.4-22.4 49.7-49.7 49.7H394.5c-13.2 0-25.8-5.3-35.2-14.5s-14.5-21.9-14.5-35.2v-25.9c0-1.9 0.2-3.6 0.3-5.5h-79.6c-41.2 0-74.5 33.3-74.5 74.5v527.2c0 41.2 33.3 74.5 74.5 74.5h493c41.2 0 74.5-33.3 74.5-74.5V275.8c0-41-33.3-74.5-74.5-74.5z m-9.8 615c-6.5 6.5-15 9.7-23.6 9.7-8.5 0-17.1-3.2-23.6-9.7L589.1 703.8c-21 11-45 17.3-70.3 17.3-83.8 0-151.7-67.9-151.7-151.7S435 417.7 518.8 417.7s151.7 67.8 151.7 151.6c0 34.1-11.4 65.7-30.3 91L748.9 769c12.9 13.2 12.9 34.3-0.2 47.3z" fill="#FFB000" p-id="42219"></path><path d="M520.5 571.7m-84.1 0a84.1 84.1 0 1 0 168.2 0 84.1 84.1 0 1 0-168.2 0Z" fill="#FFB000" p-id="42220"></path></svg>