<?xml version="1.0" standalone="no"?><!DOCTYPE svg PUBLIC "-//W3C//DTD SVG 1.1//EN" "http://www.w3.org/Graphics/SVG/1.1/DTD/svg11.dtd"><svg t="1610614223308" class="icon" viewBox="0 0 1024 1024" version="1.1" xmlns="http://www.w3.org/2000/svg" p-id="62911" xmlns:xlink="http://www.w3.org/1999/xlink" width="20" height="20"><defs><style type="text/css"></style></defs><path d="M813 384.1l-44.9-159.8c-2.2-7.8-9.3-13.2-17.4-13.2H273.3c-8.1 0-15.2 5.4-17.4 13.2L210.7 385c-0.5 1.7-0.7 3.5-0.7 5.2v404.6c0 10 8.1 18.1 18.1 18.1h567.7c10 0 18.1-8.1 18.1-18.1V390.3v-0.4c0-2.1-0.3-4-0.9-5.8zM287 247.2h207.8l-10.5 124.6H252l35-124.6z m398.3 258.9L502 689.4c-5.5 5.5-12.7 8.2-19.9 8.2-7.2 0-14.4-2.7-19.8-8.2l-88.6-88.6c-10.9-10.9-10.9-28.7 0-39.7 11-10.9 28.7-10.9 39.7 0l68.7 68.7 163.4-163.4c11-10.9 28.7-10.9 39.7 0 11.1 11 11.1 28.7 0.1 39.7zM539.8 371.8l-9.6-124.6H737l35 124.6H539.8z" fill="#2c2c2c" p-id="62912"></path></svg>
